<svg width="257" height="54" viewBox="0 0 257 54" fill="none" xmlns="http://www.w3.org/2000/svg">
<path d="M27.7689 27.1275C27.7689 36.2538 22.6424 42.5634 14.6992 42.5634C10.136 42.5634 6.30526 40.0846 4.22086 35.7468V42H0.559084V1.55141H4.50254V18.5646C6.41793 14.2268 10.1924 11.7481 14.6992 11.7481C22.6424 11.7481 27.7689 18.0013 27.7689 27.1275ZM23.7691 27.1275C23.7691 19.5786 19.882 15.1845 14.0795 15.1845C8.50233 15.1845 4.4462 19.5223 4.4462 27.0149C4.4462 34.4511 8.38966 39.1269 14.0795 39.1269C19.882 39.1269 23.7691 34.6764 23.7691 27.1275ZM54.4198 12.3114L39.2093 52.8727H34.9842L39.322 41.6057L27.548 12.3114H31.7731L41.3501 36.8735L50.42 12.3114H54.4198Z" fill="url(#paint0_linear_39_4533)"/>
<path d="M96.0114 30.7893C96.0114 37.2115 90.7722 42.5634 81.3643 42.5634C71.9563 42.5634 66.4355 37.3242 66.0411 29.6626H70.3226C70.7169 35.4088 74.3224 39.1269 81.3079 39.1269C87.0541 39.1269 91.5609 36.1975 91.5609 31.3527C91.5609 27.1839 89.1948 25.2685 83.4487 24.0854L78.3222 23.0714C72.9703 22.001 67.3368 19.5223 67.3368 12.4804C67.3368 6.00188 73.0267 0.988063 81.0826 0.988063C88.9695 0.988063 95.0537 5.94555 95.5044 13.6635H91.1666C90.8849 8.31162 86.9414 4.4245 81.1389 4.4245C74.9421 4.4245 71.6183 8.19895 71.6183 12.2551C71.6183 17.0436 75.6744 18.5083 80.1812 19.4096L85.3077 20.48C92.1243 21.8884 96.0114 24.7051 96.0114 30.7893ZM129.113 27.1275C129.113 36.3102 123.986 42.5634 116.099 42.5634C111.649 42.5634 107.874 40.1409 105.846 35.9158V52.8727H101.903V12.3114H105.565V18.7336C107.593 14.3395 111.536 11.7481 116.099 11.7481C123.986 11.7481 129.113 18.0576 129.113 27.1275ZM125.113 27.1275C125.113 19.635 121.226 15.1845 115.423 15.1845C109.902 15.1845 105.79 19.5786 105.79 27.1275C105.79 34.5074 109.79 39.1269 115.423 39.1269C121.226 39.1269 125.113 34.7328 125.113 27.1275ZM137.715 26.1135V42H133.772V12.3114H137.434V19.0716C139.462 14.6775 143.856 11.8607 148.757 11.8607V15.9732C142.504 15.7479 137.715 19.635 137.715 26.1135ZM157.013 5.43853C157.013 7.18492 155.718 8.42429 153.802 8.42429C151.943 8.42429 150.648 7.18492 150.648 5.43853C150.648 3.74848 151.943 2.50911 153.802 2.50911C155.718 2.50911 157.013 3.74848 157.013 5.43853ZM155.83 42H151.887V12.3114H155.83V42ZM166.629 24.7051V42H162.685V12.3114H166.347V17.8886C168.262 14.2268 171.868 11.7481 176.149 11.7481C182.346 11.7481 186.346 15.6915 186.346 22.7334V42H182.403V24.0854C182.403 18.3956 179.811 15.1845 174.966 15.1845C170.347 15.1845 166.629 19.1843 166.629 24.7051ZM204.169 53.4924C196.621 53.4924 191.888 49.5489 191.55 42.9014H195.325C195.663 47.7462 198.818 50.3376 204.113 50.3376C209.972 50.3376 213.07 47.2392 213.07 41.3803V35.1835C211.268 39.3523 207.662 41.7747 203.268 41.7747C195.776 41.7747 190.762 35.7468 190.762 26.7332C190.762 17.7196 195.719 11.7481 203.212 11.7481C207.662 11.7481 211.38 14.2831 213.296 18.6209V12.3114H216.958V41.324C216.958 48.9855 212.282 53.4924 204.169 53.4924ZM194.705 26.7332C194.705 34.0004 198.142 38.3946 203.831 38.3946C209.409 38.3946 213.127 33.8877 213.127 27.0149C213.127 19.7476 209.465 15.1282 203.831 15.1282C198.198 15.1282 194.705 19.5223 194.705 26.7332ZM228.344 42H224.119V1.55141H247.329V5.21319H228.344V20.987H244.681V24.6488H228.344V42ZM256.142 42H251.917V1.55141H256.142V42Z" fill="url(#paint1_linear_39_4533)"/>
<defs>
<linearGradient id="paint0_linear_39_4533" x1="128.5" y1="-14" x2="128.5" y2="40.6194" gradientUnits="userSpaceOnUse">
<stop offset="0.630208" stop-color="white"/>
<stop offset="1" stop-color="white" stop-opacity="0.29"/>
</linearGradient>
<linearGradient id="paint1_linear_39_4533" x1="128.5" y1="-14" x2="219.857" y2="16.0493" gradientUnits="userSpaceOnUse">
<stop stop-color="#00E0FF"/>
<stop offset="1" stop-color="#C883FF"/>
</linearGradient>
</defs>
</svg>
