<svg viewBox="0 0 206 91" fill="none" xmlns="http://www.w3.org/2000/svg">
<g filter="url(#filter0_bddd_36_3644)">
<path d="M28.1997 35.7385C28.1997 31.6516 31.5128 28.3386 35.5996 28.3386H171.299C175.386 28.3386 178.699 31.6517 178.699 35.7385V54.7385C178.699 58.8254 175.386 62.1384 171.299 62.1384H35.5996C31.5128 62.1384 28.1997 58.8254 28.1997 54.7385V35.7385Z" fill="black" fill-opacity="0.5" shape-rendering="crispEdges"/>
<path d="M28.6622 35.7385C28.6622 31.9071 31.7682 28.8011 35.5996 28.8011H171.299C175.131 28.8011 178.237 31.9071 178.237 35.7385V54.7385C178.237 58.57 175.131 61.6759 171.299 61.6759H35.5996C31.7682 61.6759 28.6622 58.5699 28.6622 54.7385V35.7385Z" stroke="white" stroke-opacity="0.07" stroke-width="0.92499" shape-rendering="crispEdges"/>
<path d="M28.6622 35.7385C28.6622 31.9071 31.7682 28.8011 35.5996 28.8011H171.299C175.131 28.8011 178.237 31.9071 178.237 35.7385V54.7385C178.237 58.57 175.131 61.6759 171.299 61.6759H35.5996C31.7682 61.6759 28.6622 58.5699 28.6622 54.7385V35.7385Z" stroke="url(#paint0_linear_36_3644)" stroke-width="0.92499" style="mix-blend-mode:overlay" shape-rendering="crispEdges"/>
<path d="M51.8566 43.3832H50.4218C50.3666 43.0766 50.2639 42.8068 50.1137 42.5738C49.9634 42.3408 49.7795 42.1431 49.5618 41.9806C49.3441 41.8181 49.1004 41.6954 48.8306 41.6127C48.5639 41.5299 48.2803 41.4885 47.9799 41.4885C47.4372 41.4885 46.9513 41.6249 46.5221 41.8978C46.096 42.1706 45.7587 42.5707 45.5104 43.098C45.2651 43.6254 45.1425 44.2692 45.1425 45.0295C45.1425 45.7959 45.2651 46.4428 45.5104 46.9701C45.7587 47.4974 46.0975 47.896 46.5267 48.1658C46.9559 48.4356 47.4388 48.5705 47.9753 48.5705C48.2727 48.5705 48.5547 48.5306 48.8214 48.4509C49.0912 48.3681 49.3349 48.247 49.5526 48.0876C49.7703 47.9282 49.9542 47.7335 50.1045 47.5036C50.2577 47.2706 50.3635 47.0038 50.4218 46.7034L51.8566 46.708C51.7799 47.1709 51.6312 47.5971 51.4105 47.9864C51.1928 48.3727 50.9123 48.7069 50.5689 48.9889C50.2286 49.2679 49.8393 49.4841 49.4009 49.6374C48.9625 49.7906 48.4842 49.8673 47.9661 49.8673C47.1506 49.8673 46.424 49.6741 45.7863 49.2879C45.1486 48.8985 44.6458 48.3421 44.2779 47.6185C43.9131 46.895 43.7307 46.032 43.7307 45.0295C43.7307 44.0239 43.9146 43.1609 44.2825 42.4404C44.6504 41.7169 45.1532 41.162 45.7909 40.7757C46.4286 40.3864 47.1536 40.1917 47.9661 40.1917C48.4658 40.1917 48.9318 40.2637 49.3641 40.4078C49.7994 40.5488 50.1903 40.7573 50.5367 41.0332C50.8832 41.3061 51.1698 41.6403 51.3967 42.0357C51.6236 42.4282 51.7768 42.8773 51.8566 43.3832ZM56.4219 49.8811C55.7597 49.8811 55.1818 49.7293 54.6882 49.4258C54.1946 49.1223 53.8114 48.6977 53.5385 48.152C53.2657 47.6063 53.1292 46.9686 53.1292 46.2389C53.1292 45.5062 53.2657 44.8655 53.5385 44.3167C53.8114 43.7679 54.1946 43.3418 54.6882 43.0383C55.1818 42.7347 55.7597 42.583 56.4219 42.583C57.0841 42.583 57.662 42.7347 58.1556 43.0383C58.6492 43.3418 59.0324 43.7679 59.3053 44.3167C59.5781 44.8655 59.7145 45.5062 59.7145 46.2389C59.7145 46.9686 59.5781 47.6063 59.3053 48.152C59.0324 48.6977 58.6492 49.1223 58.1556 49.4258C57.662 49.7293 57.0841 49.8811 56.4219 49.8811ZM56.4265 48.7268C56.8557 48.7268 57.2113 48.6134 57.4934 48.3865C57.7754 48.1596 57.9839 47.8577 58.1188 47.4806C58.2568 47.1035 58.3257 46.6881 58.3257 46.2343C58.3257 45.7837 58.2568 45.3698 58.1188 44.9927C57.9839 44.6125 57.7754 44.3075 57.4934 44.0776C57.2113 43.8476 56.8557 43.7327 56.4265 43.7327C55.9942 43.7327 55.6355 43.8476 55.3504 44.0776C55.0683 44.3075 54.8583 44.6125 54.7204 44.9927C54.5855 45.3698 54.518 45.7837 54.518 46.2343C54.518 46.6881 54.5855 47.1035 54.7204 47.4806C54.8583 47.8577 55.0683 48.1596 55.3504 48.3865C55.6355 48.6134 55.9942 48.7268 56.4265 48.7268ZM62.6243 45.5445V49.7385H61.2493V42.675H62.5692V43.8246H62.6565C62.819 43.4506 63.0735 43.1502 63.4199 42.9233C63.7694 42.6964 64.2094 42.583 64.7397 42.583C65.2211 42.583 65.6426 42.6842 66.0044 42.8865C66.3661 43.0858 66.6467 43.3832 66.8459 43.7786C67.0452 44.1741 67.1448 44.6631 67.1448 45.2456V49.7385H65.7698V45.4112C65.7698 44.8992 65.6365 44.4991 65.3698 44.2109C65.103 43.9197 64.7367 43.774 64.2707 43.774C63.9518 43.774 63.6682 43.843 63.4199 43.981C63.1747 44.1189 62.98 44.3213 62.8359 44.588C62.6949 44.8517 62.6243 45.1705 62.6243 45.5445ZM70.3639 45.5445V49.7385H68.9889V42.675H70.3087V43.8246H70.3961C70.5586 43.4506 70.813 43.1502 71.1595 42.9233C71.509 42.6964 71.9489 42.583 72.4793 42.583C72.9606 42.583 73.3822 42.6842 73.7439 42.8865C74.1057 43.0858 74.3862 43.3832 74.5855 43.7786C74.7848 44.1741 74.8844 44.6631 74.8844 45.2456V49.7385H73.5094V45.4112C73.5094 44.8992 73.376 44.4991 73.1093 44.2109C72.8426 43.9197 72.4762 43.774 72.0102 43.774C71.6914 43.774 71.4078 43.843 71.1595 43.981C70.9142 44.1189 70.7195 44.3213 70.5755 44.588C70.4344 44.8517 70.3639 45.1705 70.3639 45.5445ZM79.7728 49.8811C79.0769 49.8811 78.4775 49.7324 77.9747 49.435C77.475 49.1346 77.0887 48.713 76.8158 48.1704C76.5461 47.6247 76.4112 46.9855 76.4112 46.2527C76.4112 45.5292 76.5461 44.8915 76.8158 44.3397C77.0887 43.7878 77.4689 43.3571 77.9563 43.0475C78.4468 42.7378 79.0201 42.583 79.6762 42.583C80.0748 42.583 80.4611 42.6489 80.8351 42.7807C81.2091 42.9126 81.5448 43.1195 81.8422 43.4016C82.1396 43.6836 82.3741 44.05 82.5458 44.5006C82.7175 44.9482 82.8033 45.4924 82.8033 46.1332V46.6206H77.1883V45.5905H81.4559C81.4559 45.2288 81.3823 44.9084 81.2352 44.6294C81.088 44.3473 80.8811 44.1251 80.6144 43.9626C80.3507 43.8001 80.0411 43.7189 79.6854 43.7189C79.2991 43.7189 78.9619 43.8139 78.6737 44.004C78.3886 44.191 78.1679 44.4363 78.0115 44.7398C77.8582 45.0402 77.7816 45.3667 77.7816 45.7193V46.5241C77.7816 46.9962 77.8643 47.3978 78.0299 47.7289C78.1985 48.06 78.433 48.3129 78.7335 48.4877C79.0339 48.6594 79.385 48.7452 79.7866 48.7452C80.0472 48.7452 80.2848 48.7084 80.4994 48.6348C80.714 48.5582 80.8995 48.4448 81.0558 48.2945C81.2122 48.1443 81.3317 47.9588 81.4145 47.7381L82.7159 47.9726C82.6117 48.3559 82.4247 48.6916 82.1549 48.9797C81.8882 49.2649 81.5525 49.4871 81.1478 49.6466C80.7462 49.8029 80.2878 49.8811 79.7728 49.8811ZM87.3043 49.8811C86.6206 49.8811 86.032 49.7263 85.5384 49.4166C85.0479 49.1039 84.6708 48.6732 84.4071 48.1244C84.1435 47.5756 84.0116 46.9471 84.0116 46.2389C84.0116 45.5215 84.1465 44.8885 84.4163 44.3397C84.6861 43.7878 85.0663 43.3571 85.5568 43.0475C86.0473 42.7378 86.6252 42.583 87.2905 42.583C87.827 42.583 88.3053 42.6826 88.7253 42.8819C89.1453 43.0781 89.484 43.354 89.7416 43.7097C90.0022 44.0653 90.157 44.4807 90.206 44.9559H88.8678C88.7942 44.6248 88.6256 44.3397 88.362 44.1006C88.1014 43.8614 87.7519 43.7419 87.3135 43.7419C86.9302 43.7419 86.5945 43.843 86.3064 44.0454C86.0212 44.2446 85.799 44.5298 85.6396 44.9007C85.4801 45.2686 85.4004 45.704 85.4004 46.2067C85.4004 46.7218 85.4786 47.1663 85.635 47.5404C85.7913 47.9144 86.012 48.2041 86.2972 48.4095C86.5853 48.6149 86.9241 48.7176 87.3135 48.7176C87.5741 48.7176 87.8101 48.6701 88.0217 48.5751C88.2363 48.477 88.4156 48.3375 88.5597 48.1566C88.7069 47.9757 88.8096 47.758 88.8678 47.5036H90.206C90.157 47.9604 90.0083 48.3681 89.76 48.7268C89.5116 49.0855 89.179 49.3676 88.7621 49.573C88.3482 49.7784 87.8622 49.8811 87.3043 49.8811ZM94.9737 42.675V43.7786H91.1154V42.675H94.9737ZM92.1501 40.9827H93.5251V47.6645C93.5251 47.9312 93.565 48.1321 93.6447 48.267C93.7244 48.3988 93.8271 48.4892 93.9528 48.5383C94.0816 48.5843 94.2211 48.6073 94.3713 48.6073C94.4817 48.6073 94.5782 48.5996 94.661 48.5843C94.7438 48.5689 94.8082 48.5567 94.8541 48.5475L95.1025 49.6833C95.0228 49.714 94.9093 49.7447 94.7622 49.7753C94.615 49.809 94.4311 49.8274 94.2103 49.8305C93.8486 49.8366 93.5113 49.7722 93.1986 49.6374C92.8859 49.5025 92.633 49.294 92.4398 49.0119C92.2467 48.7299 92.1501 48.3758 92.1501 47.9496V40.9827ZM101.876 49.7385L99.2643 40.3204H100.759L102.594 47.6139H102.681L104.59 40.3204H106.07L107.979 47.6185H108.066L109.896 40.3204H111.396L108.779 49.7385H107.349L105.367 42.6842H105.293L103.311 49.7385H101.876ZM113.941 49.8949C113.493 49.8949 113.089 49.8121 112.727 49.6466C112.365 49.4779 112.078 49.2342 111.867 48.9154C111.658 48.5965 111.554 48.2056 111.554 47.7427C111.554 47.3441 111.631 47.0161 111.784 46.7586C111.937 46.5011 112.144 46.2972 112.405 46.147C112.666 45.9967 112.957 45.8833 113.279 45.8067C113.601 45.73 113.929 45.6718 114.263 45.6319C114.686 45.5829 115.029 45.543 115.293 45.5123C115.557 45.4786 115.748 45.425 115.868 45.3514C115.987 45.2778 116.047 45.1582 116.047 44.9927V44.9605C116.047 44.5589 115.934 44.2477 115.707 44.027C115.483 43.8062 115.149 43.6959 114.704 43.6959C114.241 43.6959 113.877 43.7986 113.61 44.004C113.346 44.2063 113.164 44.4317 113.063 44.68L111.77 44.3857C111.924 43.9565 112.147 43.61 112.442 43.3464C112.739 43.0796 113.081 42.8865 113.467 42.7669C113.854 42.6443 114.26 42.583 114.686 42.583C114.968 42.583 115.267 42.6167 115.583 42.6842C115.901 42.7485 116.199 42.8681 116.475 43.0429C116.754 43.2176 116.982 43.4675 117.16 43.7924C117.338 44.1143 117.427 44.5328 117.427 45.0479V49.7385H116.084V48.7728H116.029C115.94 48.9506 115.806 49.1254 115.629 49.2971C115.451 49.4687 115.222 49.6113 114.943 49.7247C114.664 49.8382 114.33 49.8949 113.941 49.8949ZM114.24 48.7912C114.62 48.7912 114.945 48.7161 115.215 48.5659C115.488 48.4156 115.695 48.2194 115.836 47.9772C115.98 47.732 116.052 47.4698 116.052 47.1909V46.2803C116.003 46.3294 115.908 46.3754 115.767 46.4183C115.629 46.4581 115.471 46.4934 115.293 46.5241C115.115 46.5516 114.942 46.5777 114.773 46.6022C114.605 46.6237 114.464 46.6421 114.35 46.6574C114.083 46.6911 113.84 46.7479 113.619 46.8276C113.401 46.9073 113.227 47.0222 113.095 47.1725C112.966 47.3196 112.902 47.5158 112.902 47.7611C112.902 48.1014 113.027 48.3589 113.279 48.5337C113.53 48.7054 113.85 48.7912 114.24 48.7912ZM120.633 40.3204V49.7385H119.258V40.3204H120.633ZM123.858 40.3204V49.7385H122.483V40.3204H123.858ZM128.752 49.8811C128.056 49.8811 127.457 49.7324 126.954 49.435C126.454 49.1346 126.068 48.713 125.795 48.1704C125.525 47.6247 125.39 46.9855 125.39 46.2527C125.39 45.5292 125.525 44.8915 125.795 44.3397C126.068 43.7878 126.448 43.3571 126.936 43.0475C127.426 42.7378 127.999 42.583 128.656 42.583C129.054 42.583 129.44 42.6489 129.814 42.7807C130.188 42.9126 130.524 43.1195 130.822 43.4016C131.119 43.6836 131.353 44.05 131.525 44.5006C131.697 44.9482 131.783 45.4924 131.783 46.1332V46.6206H126.168V45.5905H130.435C130.435 45.2288 130.362 44.9084 130.214 44.6294C130.067 44.3473 129.86 44.1251 129.594 43.9626C129.33 43.8001 129.02 43.7189 128.665 43.7189C128.278 43.7189 127.941 43.8139 127.653 44.004C127.368 44.191 127.147 44.4363 126.991 44.7398C126.838 45.0402 126.761 45.3667 126.761 45.7193V46.5241C126.761 46.9962 126.844 47.3978 127.009 47.7289C127.178 48.06 127.412 48.3129 127.713 48.4877C128.013 48.6594 128.364 48.7452 128.766 48.7452C129.026 48.7452 129.264 48.7084 129.479 48.6348C129.693 48.5582 129.879 48.4448 130.035 48.2945C130.191 48.1443 130.311 47.9588 130.394 47.7381L131.695 47.9726C131.591 48.3559 131.404 48.6916 131.134 48.9797C130.867 49.2649 130.532 49.4871 130.127 49.6466C129.725 49.8029 129.267 49.8811 128.752 49.8811ZM136.605 42.675V43.7786H132.747V42.675H136.605ZM133.782 40.9827H135.157V47.6645C135.157 47.9312 135.197 48.1321 135.276 48.267C135.356 48.3988 135.459 48.4892 135.585 48.5383C135.713 48.5843 135.853 48.6073 136.003 48.6073C136.113 48.6073 136.21 48.5996 136.293 48.5843C136.376 48.5689 136.44 48.5567 136.486 48.5475L136.734 49.6833C136.655 49.714 136.541 49.7447 136.394 49.7753C136.247 49.809 136.063 49.8274 135.842 49.8305C135.48 49.8366 135.143 49.7722 134.83 49.6374C134.518 49.5025 134.265 49.294 134.072 49.0119C133.878 48.7299 133.782 48.3758 133.782 47.9496V40.9827Z" fill="white"/>
<path d="M154.033 50.1718L158.966 45.2385L154.033 40.3052" stroke="white" stroke-width="1.38749" stroke-linecap="round" stroke-linejoin="round"/>
</g>
<g style="mix-blend-mode:screen" opacity="0.2" filter="url(#filter1_f_36_3644)">
<rect x="18.9497" y="19.0887" width="168.5" height="52.4998" rx="9.2499" fill="url(#paint1_angular_36_3644)"/>
</g>
<g style="mix-blend-mode:overlay">
<rect x="28.6622" y="28.8011" width="149.075" height="33.075" rx="6.93743" stroke="url(#paint2_linear_36_3644)" stroke-width="0.92499"/>
</g>
<defs>
<filter id="filter0_bddd_36_3644" x="8.19971" y="8.33859" width="190.5" height="73.7998" filterUnits="userSpaceOnUse" color-interpolation-filters="sRGB">
<feFlood flood-opacity="0" result="BackgroundImageFix"/>
<feGaussianBlur in="BackgroundImageFix" stdDeviation="10"/>
<feComposite in2="SourceAlpha" operator="in" result="effect1_backgroundBlur_36_3644"/>
<feColorMatrix in="SourceAlpha" type="matrix" values="0 0 0 0 0 0 0 0 0 0 0 0 0 0 0 0 0 0 127 0" result="hardAlpha"/>
<feOffset dy="10"/>
<feGaussianBlur stdDeviation="5"/>
<feComposite in2="hardAlpha" operator="out"/>
<feColorMatrix type="matrix" values="0 0 0 0 0 0 0 0 0 0 0 0 0 0 0 0 0 0 0.1 0"/>
<feBlend mode="normal" in2="effect1_backgroundBlur_36_3644" result="effect2_dropShadow_36_3644"/>
<feColorMatrix in="SourceAlpha" type="matrix" values="0 0 0 0 0 0 0 0 0 0 0 0 0 0 0 0 0 0 127 0" result="hardAlpha"/>
<feOffset dy="4"/>
<feGaussianBlur stdDeviation="2"/>
<feComposite in2="hardAlpha" operator="out"/>
<feColorMatrix type="matrix" values="0 0 0 0 0 0 0 0 0 0 0 0 0 0 0 0 0 0 0.05 0"/>
<feBlend mode="normal" in2="effect2_dropShadow_36_3644" result="effect3_dropShadow_36_3644"/>
<feColorMatrix in="SourceAlpha" type="matrix" values="0 0 0 0 0 0 0 0 0 0 0 0 0 0 0 0 0 0 127 0" result="hardAlpha"/>
<feOffset dy="1"/>
<feComposite in2="hardAlpha" operator="out"/>
<feColorMatrix type="matrix" values="0 0 0 0 0 0 0 0 0 0 0 0 0 0 0 0 0 0 0.05 0"/>
<feBlend mode="normal" in2="effect3_dropShadow_36_3644" result="effect4_dropShadow_36_3644"/>
<feBlend mode="normal" in="SourceGraphic" in2="effect4_dropShadow_36_3644" result="shape"/>
</filter>
<filter id="filter1_f_36_3644" x="0.449905" y="0.588882" width="205.5" height="89.4994" filterUnits="userSpaceOnUse" color-interpolation-filters="sRGB">
<feFlood flood-opacity="0" result="BackgroundImageFix"/>
<feBlend mode="normal" in="SourceGraphic" in2="BackgroundImageFix" result="shape"/>
<feGaussianBlur stdDeviation="9.2499" result="effect1_foregroundBlur_36_3644"/>
</filter>
<linearGradient id="paint0_linear_36_3644" x1="85.1073" y1="51.7827" x2="90.065" y2="20.5164" gradientUnits="userSpaceOnUse">
<stop stop-color="white" stop-opacity="0"/>
<stop offset="1" stop-color="white"/>
</linearGradient>
<radialGradient id="paint1_angular_36_3644" cx="0" cy="0" r="1" gradientUnits="userSpaceOnUse" gradientTransform="translate(103.2 45.3386) rotate(132.055) scale(58.4688 68.6164)">
<stop offset="0.263911" stop-color="#42E8FF" stop-opacity="0"/>
<stop offset="0.51554" stop-color="#FF7EAB" stop-opacity="0.5"/>
<stop offset="0.763563" stop-color="#3083FF"/>
<stop offset="1" stop-color="#7147FF"/>
</radialGradient>
<linearGradient id="paint2_linear_36_3644" x1="103.2" y1="28.3386" x2="103.2" y2="62.3386" gradientUnits="userSpaceOnUse">
<stop stop-color="white"/>
<stop offset="1" stop-color="white" stop-opacity="0.5"/>
</linearGradient>
</defs>
</svg>
