<svg viewBox="0 0 99 35" fill="none" xmlns="http://www.w3.org/2000/svg">
<rect x="0.418571" y="0.757163" width="97.7814" height="33.4857" rx="5.3019" fill="black"/>
<rect x="0.418571" y="0.757163" width="97.7814" height="33.4857" rx="5.3019" stroke="url(#paint0_linear_36_3645)" stroke-width="0.837142"/>
<path d="M11.7983 18.8589L17.945 22.487V27.5108L11.7983 18.8589Z" fill="white"/>
<path d="M11.7983 17.6869L17.945 14.8897V7.48917L11.7983 17.6869Z" fill="white"/>
<path d="M11.7983 17.687L17.945 14.8897V21.3201L11.7983 17.687Z" fill="white"/>
<path d="M24.0919 18.8589L17.9453 22.487V27.5108L24.0919 18.8589Z" fill="white"/>
<path d="M24.0919 17.6869L17.9453 14.8897V7.48917L24.0919 17.6869Z" fill="white"/>
<path d="M24.0919 17.687L17.9453 14.8897V21.3201L24.0919 17.687Z" fill="white"/>
<path d="M33.2287 21.5V13.1793H38.8354V14.6297H34.9879V16.6124H38.5469V18.0628H34.9879V20.0496H38.8517V21.5H33.2287ZM43.5209 15.2595V16.5596H39.7627V15.2595H43.5209ZM40.6159 13.7644H42.3467V19.5823C42.3467 19.7421 42.3711 19.8667 42.4198 19.9561C42.4686 20.0428 42.5363 20.1037 42.623 20.139C42.7124 20.1742 42.8153 20.1918 42.9318 20.1918C43.013 20.1918 43.0943 20.185 43.1755 20.1715C43.2568 20.1552 43.3191 20.143 43.3624 20.1349L43.6346 21.4228C43.5479 21.4499 43.4261 21.481 43.269 21.5163C43.1119 21.5542 42.9209 21.5772 42.6961 21.5853C42.279 21.6016 41.9133 21.546 41.5991 21.4187C41.2877 21.2914 41.0452 21.0937 40.8719 20.8256C40.6985 20.5574 40.6132 20.2189 40.6159 19.8099V13.7644ZM46.5131 17.8922V21.5H44.7824V13.1793H46.4644V16.3605H46.5375C46.6784 15.9922 46.9059 15.7037 47.2201 15.4951C47.5343 15.2839 47.9284 15.1782 48.4024 15.1782C48.8357 15.1782 49.2136 15.273 49.5359 15.4626C49.8609 15.6495 50.1128 15.919 50.2916 16.2711C50.473 16.6205 50.5624 17.039 50.5597 17.5265V21.5H48.829V17.8353C48.8317 17.4507 48.7342 17.1514 48.5364 16.9374C48.3414 16.7235 48.0679 16.6165 47.7157 16.6165C47.4801 16.6165 47.2715 16.6666 47.0901 16.7668C46.9113 16.867 46.7705 17.0133 46.6675 17.2056C46.5673 17.3952 46.5158 17.6241 46.5131 17.8922ZM54.7658 21.6219C54.1238 21.6219 53.5713 21.4919 53.1081 21.2319C52.6477 20.9691 52.2929 20.5981 52.0437 20.1186C51.7945 19.6365 51.6699 19.0664 51.6699 18.4082C51.6699 17.7663 51.7945 17.2029 52.0437 16.718C52.2929 16.2332 52.6436 15.8554 53.0959 15.5845C53.551 15.3137 54.0846 15.1782 54.6967 15.1782C55.1084 15.1782 55.4917 15.2446 55.8465 15.3773C56.204 15.5073 56.5155 15.7037 56.7809 15.9664C57.0491 16.2292 57.2576 16.5596 57.4066 16.9578C57.5556 17.3532 57.6301 17.8164 57.6301 18.3472V18.8226H52.3606V17.75H56.0009C56.0009 17.5008 55.9467 17.2801 55.8384 17.0878C55.73 16.8955 55.5797 16.7451 55.3874 16.6368C55.1978 16.5257 54.977 16.4702 54.7251 16.4702C54.4624 16.4702 54.2295 16.5312 54.0263 16.653C53.8259 16.7722 53.6688 16.9334 53.555 17.1365C53.4413 17.337 53.3831 17.5604 53.3803 17.8069V18.8267C53.3803 19.1354 53.4372 19.4022 53.551 19.627C53.6674 19.8518 53.8313 20.0252 54.0426 20.1471C54.2539 20.269 54.5044 20.3299 54.7942 20.3299C54.9865 20.3299 55.1626 20.3028 55.3224 20.2486C55.4822 20.1945 55.619 20.1132 55.7327 20.0049C55.8465 19.8965 55.9332 19.7638 55.9927 19.6067L57.5935 19.7124C57.5122 20.097 57.3457 20.4328 57.0938 20.7199C56.8446 21.0043 56.5223 21.2264 56.1268 21.3862C55.7341 21.5433 55.2804 21.6219 54.7658 21.6219ZM58.7595 21.5V15.2595H60.4375V16.3483H60.5025C60.6162 15.961 60.8072 15.6685 61.0753 15.4708C61.3435 15.2703 61.6523 15.1701 62.0017 15.1701C62.0883 15.1701 62.1818 15.1755 62.282 15.1864C62.3822 15.1972 62.4703 15.2121 62.5461 15.231V16.7668C62.4648 16.7424 62.3524 16.7208 62.2089 16.7018C62.0653 16.6828 61.934 16.6734 61.8148 16.6734C61.5602 16.6734 61.3327 16.7289 61.1322 16.8399C60.9345 16.9483 60.7774 17.1 60.6609 17.295C60.5472 17.49 60.4903 17.7148 60.4903 17.9694V21.5H58.7595ZM65.9944 21.6219C65.3525 21.6219 64.8 21.4919 64.3368 21.2319C63.8763 20.9691 63.5215 20.5981 63.2723 20.1186C63.0231 19.6365 62.8985 19.0664 62.8985 18.4082C62.8985 17.7663 63.0231 17.2029 63.2723 16.718C63.5215 16.2332 63.8723 15.8554 64.3246 15.5845C64.7796 15.3137 65.3132 15.1782 65.9254 15.1782C66.3371 15.1782 66.7203 15.2446 67.0751 15.3773C67.4327 15.5073 67.7442 15.7037 68.0096 15.9664C68.2777 16.2292 68.4863 16.5596 68.6353 16.9578C68.7842 17.3532 68.8587 17.8164 68.8587 18.3472V18.8226H63.5892V17.75H67.2295C67.2295 17.5008 67.1754 17.2801 67.067 17.0878C66.9587 16.8955 66.8083 16.7451 66.616 16.6368C66.4264 16.5257 66.2057 16.4702 65.9538 16.4702C65.6911 16.4702 65.4581 16.5312 65.255 16.653C65.0546 16.7722 64.8975 16.9334 64.7837 17.1365C64.6699 17.337 64.6117 17.5604 64.609 17.8069V18.8267C64.609 19.1354 64.6659 19.4022 64.7796 19.627C64.8961 19.8518 65.06 20.0252 65.2712 20.1471C65.4825 20.269 65.733 20.3299 66.0229 20.3299C66.2152 20.3299 66.3912 20.3028 66.551 20.2486C66.7108 20.1945 66.8476 20.1132 66.9614 20.0049C67.0751 19.8965 67.1618 19.7638 67.2214 19.6067L68.8222 19.7124C68.7409 20.097 68.5743 20.4328 68.3224 20.7199C68.0732 21.0043 67.7509 21.2264 67.3555 21.3862C66.9627 21.5433 66.509 21.6219 65.9944 21.6219ZM73.9901 18.8429V15.2595H75.7208V21.5H74.0591V20.3665H73.9941C73.8533 20.7321 73.619 21.026 73.2913 21.2481C72.9662 21.4702 72.5694 21.5813 72.1009 21.5813C71.6837 21.5813 71.3167 21.4865 70.9998 21.2969C70.6829 21.1073 70.4351 20.8378 70.2563 20.4884C70.0803 20.139 69.9909 19.7205 69.9882 19.2329V15.2595H71.719V18.9242C71.7217 19.2925 71.8205 19.5837 72.0155 19.7977C72.2106 20.0116 72.4719 20.1186 72.7997 20.1186C73.0082 20.1186 73.2032 20.0712 73.3847 19.9764C73.5662 19.8789 73.7125 19.7354 73.8235 19.5458C73.9373 19.3562 73.9928 19.1219 73.9901 18.8429ZM77.1053 21.5V15.2595H78.7548V16.3605H78.8279C78.9579 15.9949 79.1746 15.7064 79.4779 15.4951C79.7813 15.2839 80.1443 15.1782 80.5668 15.1782C80.9947 15.1782 81.359 15.2852 81.6597 15.4992C81.9603 15.7105 82.1608 15.9976 82.261 16.3605H82.326C82.4533 16.003 82.6835 15.7172 83.0167 15.5033C83.3525 15.2866 83.7493 15.1782 84.2071 15.1782C84.7894 15.1782 85.2621 15.3638 85.625 15.7348C85.9907 16.1032 86.1735 16.626 86.1735 17.3031V21.5H84.4468V17.6444C84.4468 17.2977 84.3547 17.0377 84.1705 16.8643C83.9863 16.691 83.7561 16.6043 83.4798 16.6043C83.1656 16.6043 82.9205 16.7045 82.7445 16.9049C82.5684 17.1027 82.4804 17.364 82.4804 17.6891V21.5H80.8024V17.6078C80.8024 17.3017 80.7144 17.058 80.5383 16.8765C80.365 16.695 80.1361 16.6043 79.8517 16.6043C79.6594 16.6043 79.4861 16.653 79.3317 16.7505C79.18 16.8453 79.0595 16.9794 78.9701 17.1528C78.8807 17.3234 78.836 17.5238 78.836 17.7541V21.5H77.1053Z" fill="white"/>
<defs>
<linearGradient id="paint0_linear_36_3645" x1="0" y1="17.5" x2="98.6186" y2="17.5" gradientUnits="userSpaceOnUse">
<stop stop-color="#5C34FF"/>
<stop offset="0.567535" stop-color="#6251A8"/>
<stop offset="1" stop-color="#666666"/>
</linearGradient>
</defs>
</svg>
