<svg width="444" height="61" viewBox="0 0 444 61" fill="none" xmlns="http://www.w3.org/2000/svg">
<path d="M25.9455 60L13.9844 27.8447V60H0.702872V4.23313H18.0232L32.0814 42.0583L46.062 4.23313H63.3823V60H50.1008V27.4564L38.062 60H25.9455ZM95.6359 42.0583V18.2137H108.917V60H96.7233V55.4952C94.3932 58.6019 89.966 60.7767 85.0728 60.7767C76.7622 60.7767 70.4709 55.5728 70.4709 44.5437V18.2137H83.7524V42.0583C83.7524 46.6408 86.0049 48.8932 89.733 48.8932C92.3738 48.8932 95.6359 46.7961 95.6359 42.0583ZM128.689 60H115.252V4.23313H128.689V60ZM163.109 46.9515V58.5243C160.158 60.1553 157.361 60.7767 153.633 60.7767C144.235 60.7767 138.721 55.1845 138.721 45.6311V29.7865H130.954V18.2137H138.721V5.94187H152.002V18.2137H163.42V29.7865H152.002V42.5243C152.002 46.5631 153.711 48.4272 157.361 48.4272C159.536 48.4272 161.633 47.8835 163.109 46.9515ZM182.092 8.50497C182.092 12.8545 178.597 16.0389 173.548 16.0389C168.5 16.0389 165.005 12.8545 165.005 8.50497C165.005 4.0778 168.5 0.893338 173.548 0.893338C178.597 0.893338 182.092 4.0778 182.092 8.50497ZM180.306 60H167.024V18.2137H180.306V60ZM232.438 41.7476C232.438 53.2427 223.273 60.7767 208.749 60.7767C194.224 60.7767 184.904 53.0874 183.894 40.7379H198.729C198.884 46.0194 202.38 49.3592 208.438 49.3592C213.486 49.3592 216.826 47.4175 216.826 43.9224C216.826 41.5146 214.418 39.7282 211.156 39.1068L200.982 37.1651C192.05 35.4564 186.147 30.2525 186.147 21.2428C186.147 10.8351 195.312 3.53411 207.816 3.53411C221.098 3.53411 230.651 11.1457 231.506 23.1845H216.671C216.282 18.136 212.865 14.8739 207.972 14.8739C203.622 14.8739 200.982 17.204 200.982 20.2331C200.982 22.7185 203.467 24.1943 206.418 24.7379L217.215 26.835C227.156 28.7768 232.438 33.67 232.438 41.7476ZM255.418 60.699C242.525 60.699 233.904 52 233.904 39.0292C233.904 26.5243 242.913 17.437 255.341 17.437C269.166 17.437 278.409 28.6991 276.001 42.4466H247.651C248.35 47.7282 250.836 50.369 255.108 50.369C258.836 50.369 261.321 48.8156 262.486 45.7864H275.768C273.205 55.3398 265.826 60.699 255.418 60.699ZM255.03 27.2234C251.069 27.2234 248.739 29.4758 247.807 34.136H261.787C261.632 29.9418 258.991 27.2234 255.03 27.2234ZM293.385 38.0195V60H280.103V18.2137H292.297V23.2622C295.56 19.6117 299.443 17.437 304.725 17.437C312.958 17.437 318.783 22.9515 318.783 33.1263V60H305.501V37.5534C305.501 32.2719 303.637 29.3981 299.598 29.3981C296.336 29.3981 293.385 31.7282 293.385 38.0195ZM322.159 39.1068C322.159 26.9904 329.538 17.437 340.8 17.437C345.149 17.437 348.877 18.9904 352.14 22.0972V4.23313H365.421V60H353.227V55.2621C349.809 58.835 345.693 60.7767 340.8 60.7767C329.538 60.7767 322.159 51.068 322.159 39.1068ZM335.984 39.1068C335.984 45.6311 339.945 48.8156 343.984 48.8156C348.101 48.8156 351.984 45.6311 351.984 39.0292C351.984 32.3496 348.023 29.3981 343.984 29.3981C339.945 29.3981 335.984 32.4272 335.984 39.1068ZM390.646 60.699C377.752 60.699 369.131 52 369.131 39.0292C369.131 26.5243 378.141 17.437 390.568 17.437C404.393 17.437 413.636 28.6991 411.228 42.4466H382.879C383.578 47.7282 386.063 50.369 390.335 50.369C394.063 50.369 396.548 48.8156 397.713 45.7864H410.995C408.432 55.3398 401.053 60.699 390.646 60.699ZM390.257 27.2234C386.296 27.2234 383.966 29.4758 383.034 34.136H397.014C396.859 29.9418 394.218 27.2234 390.257 27.2234ZM428.612 40.7379V60H415.331V18.2137H427.525V25.5923C430.709 20.6991 437.311 17.903 443.991 17.903V31.7282C434.593 30.7962 428.612 31.4952 428.612 40.7379Z" fill="url(#paint0_linear_39_4532)"/>
<defs>
<linearGradient id="paint0_linear_39_4532" x1="220" y1="-16" x2="220" y2="77" gradientUnits="userSpaceOnUse">
<stop offset="0.285" stop-color="white"/>
<stop offset="1" stop-color="#020403" stop-opacity="0"/>
</linearGradient>
</defs>
</svg>
