<svg width="137" height="27" viewBox="0 0 137 27" fill="none" xmlns="http://www.w3.org/2000/svg">
<path d="M14.3868 22.7096H14.3251C14.099 22.696 13.8836 22.608 13.7126 22.4593C13.5416 22.3106 13.4246 22.1096 13.3797 21.8875L11.7971 14.1081C11.7568 13.9106 11.6594 13.7293 11.5168 13.5868C11.3743 13.4443 11.193 13.3468 10.9955 13.3065L3.21614 11.7239C2.99362 11.6797 2.79198 11.5631 2.64266 11.3924C2.49334 11.2216 2.40473 11.0062 2.39065 10.7797C2.37657 10.5533 2.43782 10.3286 2.56483 10.1406C2.69185 9.95262 2.87749 9.81196 3.09282 9.74054L19.5354 4.26312C19.7199 4.18691 19.9227 4.16613 20.1189 4.2033C20.3151 4.24047 20.4962 4.33399 20.6401 4.47244C20.784 4.61088 20.8844 4.78825 20.9291 4.98285C20.9739 5.17746 20.9609 5.38088 20.8919 5.56825L15.4145 22.0108C15.3429 22.2235 15.2038 22.4069 15.0182 22.5331C14.8327 22.6593 14.6109 22.7213 14.3868 22.7096Z" fill="white"/>
<path d="M46.6966 21.8755C48.2364 21.927 49.7708 21.6693 51.2093 21.1177C52.6478 20.5661 53.9611 19.7317 55.0716 18.6639C56.1821 17.5961 57.0673 16.3165 57.6749 14.9008C58.2825 13.485 58.6001 11.9619 58.609 10.4213C59.3146 9.54807 59.8386 8.54262 60.1501 7.46402C60.1733 7.3788 60.1715 7.28868 60.1447 7.2045C60.1179 7.12033 60.0674 7.04569 59.9991 6.98957C59.9309 6.93346 59.8479 6.89826 59.7602 6.88821C59.6724 6.87817 59.5836 6.89371 59.5045 6.93296C59.1353 7.11066 58.7197 7.16806 58.3162 7.09708C57.9127 7.02609 57.5416 6.83029 57.2553 6.53727C56.8898 6.13698 56.4476 5.81413 55.955 5.58785C55.4624 5.36158 54.9294 5.23648 54.3875 5.21997C53.8457 5.20347 53.3061 5.29588 52.8006 5.49175C52.2951 5.68762 51.8341 5.98295 51.4449 6.36025C50.912 6.87638 50.5216 7.52159 50.3118 8.23319C50.102 8.94479 50.0798 9.69858 50.2474 10.4213C46.7591 10.6295 44.3641 8.97389 42.4482 6.70388C42.3906 6.63869 42.3153 6.59168 42.2315 6.56858C42.1476 6.54548 42.0589 6.5473 41.9761 6.5738C41.8932 6.6003 41.8199 6.65035 41.7651 6.71783C41.7102 6.78531 41.6762 6.8673 41.6672 6.95379C41.3022 8.97849 41.5655 11.0664 42.4217 12.9371C43.278 14.8078 44.6861 16.3717 46.4571 17.4187C45.2697 18.7806 43.6021 19.6311 41.8026 19.7929C41.7062 19.8089 41.6172 19.8546 41.548 19.9237C41.4789 19.9928 41.4331 20.0817 41.417 20.1781C41.401 20.2745 41.4154 20.3735 41.4584 20.4613C41.5014 20.549 41.5708 20.6212 41.6568 20.6676C43.2224 21.45 44.9465 21.8632 46.6966 21.8755Z" fill="white"/>
<path d="M93.9006 9.79693C93.1025 9.79419 92.3117 9.94884 91.5735 10.252C90.8352 10.5553 90.164 11.0011 89.5982 11.5639C89.0324 12.1268 88.5832 12.7958 88.2762 13.5324C87.9692 14.2691 87.8104 15.0591 87.8091 15.8572V21.98C87.8091 22.2286 87.9078 22.4669 88.0836 22.6427C88.2593 22.8184 88.4977 22.9172 88.7462 22.9172H90.9329C91.1815 22.9172 91.4199 22.8184 91.5956 22.6427C91.7714 22.4669 91.8701 22.2286 91.8701 21.98V15.8572C91.8699 15.5734 91.9295 15.2927 92.0451 15.0334C92.1606 14.7741 92.3295 14.5421 92.5408 14.3525C92.752 14.1629 93.0008 14.0199 93.271 13.9329C93.5412 13.8459 93.8267 13.8168 94.1089 13.8475C94.615 13.9113 95.08 14.1585 95.4159 14.5424C95.7518 14.9263 95.9351 15.4201 95.9311 15.9301V21.98C95.9311 22.2286 96.0299 22.4669 96.2056 22.6427C96.3814 22.8184 96.6197 22.9172 96.8683 22.9172H99.055C99.3036 22.9172 99.5419 22.8184 99.7177 22.6427C99.8934 22.4669 99.9922 22.2286 99.9922 21.98V15.8572C99.9908 15.0591 99.8321 14.2691 99.5251 13.5324C99.2181 12.7958 98.7688 12.1268 98.2031 11.5639C97.6373 11.0011 96.966 10.5553 96.2278 10.252C95.4895 9.94884 94.6987 9.79419 93.9006 9.79693Z" fill="white"/>
<path d="M84.9972 10.7335H82.1857C81.6681 10.7335 81.2485 11.1531 81.2485 11.6707V21.9795C81.2485 22.497 81.6681 22.9166 82.1857 22.9166H84.9972C85.5148 22.9166 85.9343 22.497 85.9343 21.9795V11.6707C85.9343 11.1531 85.5148 10.7335 84.9972 10.7335Z" fill="white"/>
<path d="M83.5914 8.85926C84.8854 8.85926 85.9343 7.8103 85.9343 6.51635C85.9343 5.22241 84.8854 4.17345 83.5914 4.17345C82.2975 4.17345 81.2485 5.22241 81.2485 6.51635C81.2485 7.8103 82.2975 8.85926 83.5914 8.85926Z" fill="white"/>
<path d="M129.884 23.8955C129.643 23.8955 129.412 23.7997 129.241 23.6292C129.071 23.4587 128.975 23.2275 128.975 22.9864V20.6228C129.003 20.3509 128.974 20.0761 128.889 19.8162C128.805 19.5563 128.667 19.3169 128.484 19.1137C128.371 18.991 128.294 18.8394 128.261 18.6757C128.228 18.512 128.241 18.3424 128.298 18.1856C128.356 18.0287 128.455 17.8907 128.586 17.7866C128.716 17.6826 128.873 17.6164 129.038 17.5955C131.257 17.3319 133.302 16.6228 133.302 12.7774C133.303 12.0593 133.091 11.3571 132.693 10.7592C132.326 10.2089 132.192 9.53549 132.32 8.88653C132.402 8.46319 132.402 8.02806 132.32 7.60472C131.64 7.83488 130.999 8.16915 130.42 8.59562C130.311 8.67327 130.186 8.72577 130.054 8.74934C129.922 8.77292 129.786 8.76699 129.657 8.73199C128.016 8.26841 126.279 8.26841 124.638 8.73199C124.509 8.76699 124.373 8.77292 124.241 8.74934C124.109 8.72577 123.984 8.67327 123.875 8.59562C123.293 8.16421 122.645 7.8296 121.957 7.60472C121.87 8.02762 121.87 8.46363 121.957 8.88653C122.076 9.54366 121.936 10.2214 121.566 10.7774C121.17 11.3794 120.958 12.084 120.957 12.8047C120.957 16.341 122.666 17.2865 125.229 17.6137C125.397 17.6345 125.556 17.7017 125.687 17.8077C125.819 17.9137 125.919 18.0543 125.975 18.2137C126.028 18.3684 126.038 18.5345 126.004 18.6945C125.971 18.8545 125.895 19.0024 125.784 19.1228C125.607 19.3118 125.471 19.5354 125.385 19.7795C125.299 20.0236 125.265 20.2829 125.284 20.541V22.9864C125.284 23.2275 125.188 23.4587 125.018 23.6292C124.847 23.7997 124.616 23.8955 124.375 23.8955C124.134 23.8955 123.903 23.7997 123.732 23.6292C123.562 23.4587 123.466 23.2275 123.466 22.9864V22.4682C122.572 22.571 121.668 22.4513 120.832 22.1198C119.996 21.7883 119.255 21.2553 118.675 20.5682C118.377 20.2377 118.019 19.9664 117.62 19.7683C117.505 19.7384 117.396 19.686 117.3 19.6142C117.205 19.5423 117.124 19.4523 117.063 19.3493C117.003 19.2463 116.963 19.1323 116.946 19.0139C116.929 18.8955 116.936 18.775 116.966 18.6592C116.996 18.5434 117.048 18.4346 117.12 18.339C117.192 18.2435 117.282 18.163 117.385 18.1022C117.488 18.0414 117.602 18.0015 117.72 17.9848C117.839 17.968 117.959 17.9748 118.075 18.0046C118.774 18.2594 119.399 18.6843 119.893 19.241C120.802 20.1501 121.711 20.9501 123.438 20.6228C123.408 20.1347 123.479 19.6456 123.648 19.1864C121.775 18.7137 119.102 17.3683 119.102 12.8229C119.1 11.7462 119.416 10.6929 120.011 9.79561C120.122 9.62998 120.164 9.42807 120.129 9.23198C119.946 8.25069 120.05 7.23721 120.429 6.31382C120.481 6.1907 120.559 6.08045 120.658 5.99089C120.757 5.90133 120.875 5.83467 121.002 5.79565C121.311 5.70474 122.42 5.52292 124.52 6.88655C126.22 6.47746 127.993 6.47746 129.693 6.88655C131.793 5.52292 132.902 5.69565 133.202 5.79565C133.33 5.83467 133.447 5.90133 133.546 5.99089C133.645 6.08045 133.723 6.1907 133.775 6.31382C134.155 7.24021 134.259 8.25681 134.075 9.24107C134.056 9.32975 134.055 9.42126 134.073 9.51023C134.09 9.5992 134.125 9.68386 134.175 9.75925C134.772 10.6591 135.088 11.7158 135.084 12.7956C135.084 17.4046 132.429 18.741 130.538 19.1592C130.705 19.647 130.773 20.163 130.738 20.6773V22.9864C130.739 23.2183 130.651 23.4417 130.492 23.6107C130.333 23.7797 130.115 23.8816 129.884 23.8955Z" fill="white"/>
</svg>
