<svg width="658" height="835" viewBox="0 0 658 835" fill="none" xmlns="http://www.w3.org/2000/svg">
<g opacity="0.3">
<mask id="path-1-inside-1_39_4531" fill="white">
<path d="M340.713 835H317.287L323.97 816.413H334.02L340.713 835Z"/>
<path d="M341.728 829.64H316.262L323.538 810.08H334.462L341.728 829.64Z"/>
<path d="M342.834 823.999H315.156L323.056 803.413H334.935L342.834 823.999Z"/>
<path d="M344.04 818.066H313.95L322.543 796.389H335.457L344.04 818.066Z"/>
<path d="M345.346 811.809H312.644L321.98 788.997H336.01L345.346 811.809Z"/>
<path d="M346.773 805.228H311.227L321.377 781.217H336.623L346.773 805.228Z"/>
<path d="M348.321 798.312H309.679L320.714 773.025H337.286L348.321 798.312Z"/>
<path d="M349.999 791.018H308.001L319.99 764.413H338.01L349.999 791.018Z"/>
<path d="M351.818 783.346H306.172L319.206 755.335H338.794L351.818 783.346Z"/>
<path d="M353.808 775.273H304.192L318.352 745.782H339.638L353.808 775.273Z"/>
<path d="M355.969 766.768H302.031L317.427 735.732H340.573L355.969 766.768Z"/>
<path d="M358.31 757.821H299.689L316.422 725.153H341.577L358.31 757.821Z"/>
<path d="M360.863 748.398H297.137L315.327 714.011H342.673L360.863 748.398Z"/>
<path d="M363.627 738.477H294.363L314.141 702.286H343.859L363.627 738.477Z"/>
<path d="M366.642 728.038H291.358L312.845 689.935H345.145L366.642 728.038Z"/>
<path d="M369.918 717.059H288.082L311.438 676.945H346.552L369.918 717.059Z"/>
<path d="M373.476 705.485H284.524L309.92 663.265H348.08L373.476 705.485Z"/>
<path d="M377.335 693.317H280.655L308.252 648.871H349.738L377.335 693.317Z"/>
<path d="M381.546 680.501H276.454L306.453 633.72H351.547L381.546 680.501Z"/>
<path d="M386.109 667.004H271.881L304.493 617.77H353.507L386.109 667.004Z"/>
<path d="M391.073 652.804H266.916L302.363 600.976H355.637L391.073 652.804Z"/>
<path d="M396.48 637.859H261.52L300.051 583.297H357.949L396.48 637.859Z"/>
<path d="M402.34 622.125H255.651L297.529 564.689H360.471L402.34 622.125Z"/>
<path d="M408.721 605.569H249.279L294.795 545.107H363.205L408.721 605.569Z"/>
<path d="M415.656 588.128H242.344L291.82 524.489H366.18L415.656 588.128Z"/>
<path d="M423.193 569.779H234.807L288.584 502.79H369.416L423.193 569.779Z"/>
<path d="M431.384 550.467H226.616L285.067 479.945H372.923L431.384 550.467Z"/>
<path d="M440.278 530.13H217.712L281.248 455.901H376.742L440.278 530.13Z"/>
<path d="M449.956 508.722H208.034L277.097 430.592H380.903L449.956 508.722Z"/>
<path d="M460.478 486.191H197.522L272.585 403.954H385.415L460.478 486.191Z"/>
<path d="M471.915 462.482H186.085L267.68 375.901H390.32L471.915 462.482Z"/>
<path d="M484.337 437.519H173.663L262.344 346.388H395.646L484.337 437.519Z"/>
<path d="M497.844 411.238H160.156L256.555 315.309H401.445L497.844 411.238Z"/>
<path d="M512.527 383.573H145.473L250.254 282.598H407.746L512.527 383.573Z"/>
<path d="M528.486 354.45H129.514L243.41 248.169H414.59L528.486 354.45Z"/>
<path d="M545.832 323.803H112.167L235.963 211.924H422.037L545.832 323.803Z"/>
<path d="M564.686 291.546H93.3039L227.873 173.767H430.128L564.686 291.546Z"/>
<path d="M585.188 257.582H72.8117L219.079 133.61H438.921L585.188 257.582Z"/>
<path d="M607.459 221.834H50.5413L209.521 91.3357H448.479L607.459 221.834Z"/>
<path d="M631.679 184.206H26.3206L199.129 46.8349H458.86L631.679 184.206Z"/>
<path d="M658 144.59H0L187.833 0H470.156L658 144.59Z"/>
</mask>
<path d="M340.713 835H317.287L323.97 816.413H334.02L340.713 835Z" stroke="url(#paint0_radial_39_4531)" stroke-width="2" mask="url(#path-1-inside-1_39_4531)"/>
<path d="M341.728 829.64H316.262L323.538 810.08H334.462L341.728 829.64Z" stroke="url(#paint1_radial_39_4531)" stroke-width="2" mask="url(#path-1-inside-1_39_4531)"/>
<path d="M342.834 823.999H315.156L323.056 803.413H334.935L342.834 823.999Z" stroke="url(#paint2_radial_39_4531)" stroke-width="2" mask="url(#path-1-inside-1_39_4531)"/>
<path d="M344.04 818.066H313.95L322.543 796.389H335.457L344.04 818.066Z" stroke="url(#paint3_radial_39_4531)" stroke-width="2" mask="url(#path-1-inside-1_39_4531)"/>
<path d="M345.346 811.809H312.644L321.98 788.997H336.01L345.346 811.809Z" stroke="url(#paint4_radial_39_4531)" stroke-width="2" mask="url(#path-1-inside-1_39_4531)"/>
<path d="M346.773 805.228H311.227L321.377 781.217H336.623L346.773 805.228Z" stroke="url(#paint5_radial_39_4531)" stroke-width="2" mask="url(#path-1-inside-1_39_4531)"/>
<path d="M348.321 798.312H309.679L320.714 773.025H337.286L348.321 798.312Z" stroke="url(#paint6_radial_39_4531)" stroke-width="2" mask="url(#path-1-inside-1_39_4531)"/>
<path d="M349.999 791.018H308.001L319.99 764.413H338.01L349.999 791.018Z" stroke="url(#paint7_radial_39_4531)" stroke-width="2" mask="url(#path-1-inside-1_39_4531)"/>
<path d="M351.818 783.346H306.172L319.206 755.335H338.794L351.818 783.346Z" stroke="url(#paint8_radial_39_4531)" stroke-width="2" mask="url(#path-1-inside-1_39_4531)"/>
<path d="M353.808 775.273H304.192L318.352 745.782H339.638L353.808 775.273Z" stroke="url(#paint9_radial_39_4531)" stroke-width="2" mask="url(#path-1-inside-1_39_4531)"/>
<path d="M355.969 766.768H302.031L317.427 735.732H340.573L355.969 766.768Z" stroke="url(#paint10_radial_39_4531)" stroke-width="2" mask="url(#path-1-inside-1_39_4531)"/>
<path d="M358.31 757.821H299.689L316.422 725.153H341.577L358.31 757.821Z" stroke="url(#paint11_radial_39_4531)" stroke-width="2" mask="url(#path-1-inside-1_39_4531)"/>
<path d="M360.863 748.398H297.137L315.327 714.011H342.673L360.863 748.398Z" stroke="url(#paint12_radial_39_4531)" stroke-width="2" mask="url(#path-1-inside-1_39_4531)"/>
<path d="M363.627 738.477H294.363L314.141 702.286H343.859L363.627 738.477Z" stroke="url(#paint13_radial_39_4531)" stroke-width="2" mask="url(#path-1-inside-1_39_4531)"/>
<path d="M366.642 728.038H291.358L312.845 689.935H345.145L366.642 728.038Z" stroke="url(#paint14_radial_39_4531)" stroke-width="2" mask="url(#path-1-inside-1_39_4531)"/>
<path d="M369.918 717.059H288.082L311.438 676.945H346.552L369.918 717.059Z" stroke="url(#paint15_radial_39_4531)" stroke-width="2" mask="url(#path-1-inside-1_39_4531)"/>
<path d="M373.476 705.485H284.524L309.92 663.265H348.08L373.476 705.485Z" stroke="url(#paint16_radial_39_4531)" stroke-width="2" mask="url(#path-1-inside-1_39_4531)"/>
<path d="M377.335 693.317H280.655L308.252 648.871H349.738L377.335 693.317Z" stroke="url(#paint17_radial_39_4531)" stroke-width="2" mask="url(#path-1-inside-1_39_4531)"/>
<path d="M381.546 680.501H276.454L306.453 633.72H351.547L381.546 680.501Z" stroke="url(#paint18_radial_39_4531)" stroke-width="2" mask="url(#path-1-inside-1_39_4531)"/>
<path d="M386.109 667.004H271.881L304.493 617.77H353.507L386.109 667.004Z" stroke="url(#paint19_radial_39_4531)" stroke-width="2" mask="url(#path-1-inside-1_39_4531)"/>
<path d="M391.073 652.804H266.916L302.363 600.976H355.637L391.073 652.804Z" stroke="url(#paint20_radial_39_4531)" stroke-width="2" mask="url(#path-1-inside-1_39_4531)"/>
<path d="M396.48 637.859H261.52L300.051 583.297H357.949L396.48 637.859Z" stroke="url(#paint21_radial_39_4531)" stroke-width="2" mask="url(#path-1-inside-1_39_4531)"/>
<path d="M402.34 622.125H255.651L297.529 564.689H360.471L402.34 622.125Z" stroke="url(#paint22_radial_39_4531)" stroke-width="2" mask="url(#path-1-inside-1_39_4531)"/>
<path d="M408.721 605.569H249.279L294.795 545.107H363.205L408.721 605.569Z" stroke="url(#paint23_radial_39_4531)" stroke-width="2" mask="url(#path-1-inside-1_39_4531)"/>
<path d="M415.656 588.128H242.344L291.82 524.489H366.18L415.656 588.128Z" stroke="url(#paint24_radial_39_4531)" stroke-width="2" mask="url(#path-1-inside-1_39_4531)"/>
<path d="M423.193 569.779H234.807L288.584 502.79H369.416L423.193 569.779Z" stroke="url(#paint25_radial_39_4531)" stroke-width="2" mask="url(#path-1-inside-1_39_4531)"/>
<path d="M431.384 550.467H226.616L285.067 479.945H372.923L431.384 550.467Z" stroke="url(#paint26_radial_39_4531)" stroke-width="2" mask="url(#path-1-inside-1_39_4531)"/>
<path d="M440.278 530.13H217.712L281.248 455.901H376.742L440.278 530.13Z" stroke="url(#paint27_radial_39_4531)" stroke-width="2" mask="url(#path-1-inside-1_39_4531)"/>
<path d="M449.956 508.722H208.034L277.097 430.592H380.903L449.956 508.722Z" stroke="url(#paint28_radial_39_4531)" stroke-width="2" mask="url(#path-1-inside-1_39_4531)"/>
<path d="M460.478 486.191H197.522L272.585 403.954H385.415L460.478 486.191Z" stroke="url(#paint29_radial_39_4531)" stroke-width="2" mask="url(#path-1-inside-1_39_4531)"/>
<path d="M471.915 462.482H186.085L267.68 375.901H390.32L471.915 462.482Z" stroke="url(#paint30_radial_39_4531)" stroke-width="2" mask="url(#path-1-inside-1_39_4531)"/>
<path d="M484.337 437.519H173.663L262.344 346.388H395.646L484.337 437.519Z" stroke="url(#paint31_radial_39_4531)" stroke-width="2" mask="url(#path-1-inside-1_39_4531)"/>
<path d="M497.844 411.238H160.156L256.555 315.309H401.445L497.844 411.238Z" stroke="url(#paint32_radial_39_4531)" stroke-width="2" mask="url(#path-1-inside-1_39_4531)"/>
<path d="M512.527 383.573H145.473L250.254 282.598H407.746L512.527 383.573Z" stroke="url(#paint33_radial_39_4531)" stroke-width="2" mask="url(#path-1-inside-1_39_4531)"/>
<path d="M528.486 354.45H129.514L243.41 248.169H414.59L528.486 354.45Z" stroke="url(#paint34_radial_39_4531)" stroke-width="2" mask="url(#path-1-inside-1_39_4531)"/>
<path d="M545.832 323.803H112.167L235.963 211.924H422.037L545.832 323.803Z" stroke="url(#paint35_radial_39_4531)" stroke-width="2" mask="url(#path-1-inside-1_39_4531)"/>
<path d="M564.686 291.546H93.3039L227.873 173.767H430.128L564.686 291.546Z" stroke="url(#paint36_radial_39_4531)" stroke-width="2" mask="url(#path-1-inside-1_39_4531)"/>
<path d="M585.188 257.582H72.8117L219.079 133.61H438.921L585.188 257.582Z" stroke="url(#paint37_radial_39_4531)" stroke-width="2" mask="url(#path-1-inside-1_39_4531)"/>
<path d="M607.459 221.834H50.5413L209.521 91.3357H448.479L607.459 221.834Z" stroke="url(#paint38_radial_39_4531)" stroke-width="2" mask="url(#path-1-inside-1_39_4531)"/>
<path d="M631.679 184.206H26.3206L199.129 46.8349H458.86L631.679 184.206Z" stroke="url(#paint39_radial_39_4531)" stroke-width="2" mask="url(#path-1-inside-1_39_4531)"/>
<path d="M658 144.59H0L187.833 0H470.156L658 144.59Z" stroke="url(#paint40_radial_39_4531)" stroke-width="2" mask="url(#path-1-inside-1_39_4531)"/>
</g>
<defs>
<radialGradient id="paint0_radial_39_4531" cx="0" cy="0" r="1" gradientUnits="userSpaceOnUse" gradientTransform="translate(329.007 219.855) rotate(90.8079) scale(432.11 356.118)">
<stop stop-color="#3C3C65"/>
<stop offset="1" stop-color="#181829"/>
</radialGradient>
<radialGradient id="paint1_radial_39_4531" cx="0" cy="0" r="1" gradientUnits="userSpaceOnUse" gradientTransform="translate(329.007 219.855) rotate(90.8079) scale(432.11 356.118)">
<stop stop-color="#3C3C65"/>
<stop offset="1" stop-color="#181829"/>
</radialGradient>
<radialGradient id="paint2_radial_39_4531" cx="0" cy="0" r="1" gradientUnits="userSpaceOnUse" gradientTransform="translate(329.007 219.855) rotate(90.8079) scale(432.11 356.118)">
<stop stop-color="#3C3C65"/>
<stop offset="1" stop-color="#181829"/>
</radialGradient>
<radialGradient id="paint3_radial_39_4531" cx="0" cy="0" r="1" gradientUnits="userSpaceOnUse" gradientTransform="translate(329.007 219.855) rotate(90.8079) scale(432.11 356.118)">
<stop stop-color="#3C3C65"/>
<stop offset="1" stop-color="#181829"/>
</radialGradient>
<radialGradient id="paint4_radial_39_4531" cx="0" cy="0" r="1" gradientUnits="userSpaceOnUse" gradientTransform="translate(329.007 219.855) rotate(90.8079) scale(432.11 356.118)">
<stop stop-color="#3C3C65"/>
<stop offset="1" stop-color="#181829"/>
</radialGradient>
<radialGradient id="paint5_radial_39_4531" cx="0" cy="0" r="1" gradientUnits="userSpaceOnUse" gradientTransform="translate(329.007 219.855) rotate(90.8079) scale(432.11 356.118)">
<stop stop-color="#3C3C65"/>
<stop offset="1" stop-color="#181829"/>
</radialGradient>
<radialGradient id="paint6_radial_39_4531" cx="0" cy="0" r="1" gradientUnits="userSpaceOnUse" gradientTransform="translate(329.007 219.855) rotate(90.8079) scale(432.11 356.118)">
<stop stop-color="#3C3C65"/>
<stop offset="1" stop-color="#181829"/>
</radialGradient>
<radialGradient id="paint7_radial_39_4531" cx="0" cy="0" r="1" gradientUnits="userSpaceOnUse" gradientTransform="translate(329.007 219.855) rotate(90.8079) scale(432.11 356.118)">
<stop stop-color="#3C3C65"/>
<stop offset="1" stop-color="#181829"/>
</radialGradient>
<radialGradient id="paint8_radial_39_4531" cx="0" cy="0" r="1" gradientUnits="userSpaceOnUse" gradientTransform="translate(329.007 219.855) rotate(90.8079) scale(432.11 356.118)">
<stop stop-color="#3C3C65"/>
<stop offset="1" stop-color="#181829"/>
</radialGradient>
<radialGradient id="paint9_radial_39_4531" cx="0" cy="0" r="1" gradientUnits="userSpaceOnUse" gradientTransform="translate(329.007 219.855) rotate(90.8079) scale(432.11 356.118)">
<stop stop-color="#3C3C65"/>
<stop offset="1" stop-color="#181829"/>
</radialGradient>
<radialGradient id="paint10_radial_39_4531" cx="0" cy="0" r="1" gradientUnits="userSpaceOnUse" gradientTransform="translate(329.007 219.855) rotate(90.8079) scale(432.11 356.118)">
<stop stop-color="#3C3C65"/>
<stop offset="1" stop-color="#181829"/>
</radialGradient>
<radialGradient id="paint11_radial_39_4531" cx="0" cy="0" r="1" gradientUnits="userSpaceOnUse" gradientTransform="translate(329.007 219.855) rotate(90.8079) scale(432.11 356.118)">
<stop stop-color="#3C3C65"/>
<stop offset="1" stop-color="#181829"/>
</radialGradient>
<radialGradient id="paint12_radial_39_4531" cx="0" cy="0" r="1" gradientUnits="userSpaceOnUse" gradientTransform="translate(329.007 219.855) rotate(90.8079) scale(432.11 356.118)">
<stop stop-color="#3C3C65"/>
<stop offset="1" stop-color="#181829"/>
</radialGradient>
<radialGradient id="paint13_radial_39_4531" cx="0" cy="0" r="1" gradientUnits="userSpaceOnUse" gradientTransform="translate(329.007 219.855) rotate(90.8079) scale(432.11 356.118)">
<stop stop-color="#3C3C65"/>
<stop offset="1" stop-color="#181829"/>
</radialGradient>
<radialGradient id="paint14_radial_39_4531" cx="0" cy="0" r="1" gradientUnits="userSpaceOnUse" gradientTransform="translate(329.007 219.855) rotate(90.8079) scale(432.11 356.118)">
<stop stop-color="#3C3C65"/>
<stop offset="1" stop-color="#181829"/>
</radialGradient>
<radialGradient id="paint15_radial_39_4531" cx="0" cy="0" r="1" gradientUnits="userSpaceOnUse" gradientTransform="translate(329.007 219.855) rotate(90.8079) scale(432.11 356.118)">
<stop stop-color="#3C3C65"/>
<stop offset="1" stop-color="#181829"/>
</radialGradient>
<radialGradient id="paint16_radial_39_4531" cx="0" cy="0" r="1" gradientUnits="userSpaceOnUse" gradientTransform="translate(329.007 219.855) rotate(90.8079) scale(432.11 356.118)">
<stop stop-color="#3C3C65"/>
<stop offset="1" stop-color="#181829"/>
</radialGradient>
<radialGradient id="paint17_radial_39_4531" cx="0" cy="0" r="1" gradientUnits="userSpaceOnUse" gradientTransform="translate(329.007 219.855) rotate(90.8079) scale(432.11 356.118)">
<stop stop-color="#3C3C65"/>
<stop offset="1" stop-color="#181829"/>
</radialGradient>
<radialGradient id="paint18_radial_39_4531" cx="0" cy="0" r="1" gradientUnits="userSpaceOnUse" gradientTransform="translate(329.007 219.855) rotate(90.8079) scale(432.11 356.118)">
<stop stop-color="#3C3C65"/>
<stop offset="1" stop-color="#181829"/>
</radialGradient>
<radialGradient id="paint19_radial_39_4531" cx="0" cy="0" r="1" gradientUnits="userSpaceOnUse" gradientTransform="translate(329.007 219.855) rotate(90.8079) scale(432.11 356.118)">
<stop stop-color="#3C3C65"/>
<stop offset="1" stop-color="#181829"/>
</radialGradient>
<radialGradient id="paint20_radial_39_4531" cx="0" cy="0" r="1" gradientUnits="userSpaceOnUse" gradientTransform="translate(329.007 219.855) rotate(90.8079) scale(432.11 356.118)">
<stop stop-color="#3C3C65"/>
<stop offset="1" stop-color="#181829"/>
</radialGradient>
<radialGradient id="paint21_radial_39_4531" cx="0" cy="0" r="1" gradientUnits="userSpaceOnUse" gradientTransform="translate(329.007 219.855) rotate(90.8079) scale(432.11 356.118)">
<stop stop-color="#3C3C65"/>
<stop offset="1" stop-color="#181829"/>
</radialGradient>
<radialGradient id="paint22_radial_39_4531" cx="0" cy="0" r="1" gradientUnits="userSpaceOnUse" gradientTransform="translate(329.007 219.855) rotate(90.8079) scale(432.11 356.118)">
<stop stop-color="#3C3C65"/>
<stop offset="1" stop-color="#181829"/>
</radialGradient>
<radialGradient id="paint23_radial_39_4531" cx="0" cy="0" r="1" gradientUnits="userSpaceOnUse" gradientTransform="translate(329.007 219.855) rotate(90.8079) scale(432.11 356.118)">
<stop stop-color="#3C3C65"/>
<stop offset="1" stop-color="#181829"/>
</radialGradient>
<radialGradient id="paint24_radial_39_4531" cx="0" cy="0" r="1" gradientUnits="userSpaceOnUse" gradientTransform="translate(329.007 219.855) rotate(90.8079) scale(432.11 356.118)">
<stop stop-color="#3C3C65"/>
<stop offset="1" stop-color="#181829"/>
</radialGradient>
<radialGradient id="paint25_radial_39_4531" cx="0" cy="0" r="1" gradientUnits="userSpaceOnUse" gradientTransform="translate(329.007 219.855) rotate(90.8079) scale(432.11 356.118)">
<stop stop-color="#3C3C65"/>
<stop offset="1" stop-color="#181829"/>
</radialGradient>
<radialGradient id="paint26_radial_39_4531" cx="0" cy="0" r="1" gradientUnits="userSpaceOnUse" gradientTransform="translate(329.007 219.855) rotate(90.8079) scale(432.11 356.118)">
<stop stop-color="#3C3C65"/>
<stop offset="1" stop-color="#181829"/>
</radialGradient>
<radialGradient id="paint27_radial_39_4531" cx="0" cy="0" r="1" gradientUnits="userSpaceOnUse" gradientTransform="translate(329.007 219.855) rotate(90.8079) scale(432.11 356.118)">
<stop stop-color="#3C3C65"/>
<stop offset="1" stop-color="#181829"/>
</radialGradient>
<radialGradient id="paint28_radial_39_4531" cx="0" cy="0" r="1" gradientUnits="userSpaceOnUse" gradientTransform="translate(329.007 219.855) rotate(90.8079) scale(432.11 356.118)">
<stop stop-color="#3C3C65"/>
<stop offset="1" stop-color="#181829"/>
</radialGradient>
<radialGradient id="paint29_radial_39_4531" cx="0" cy="0" r="1" gradientUnits="userSpaceOnUse" gradientTransform="translate(329.007 219.855) rotate(90.8079) scale(432.11 356.118)">
<stop stop-color="#3C3C65"/>
<stop offset="1" stop-color="#181829"/>
</radialGradient>
<radialGradient id="paint30_radial_39_4531" cx="0" cy="0" r="1" gradientUnits="userSpaceOnUse" gradientTransform="translate(329.007 219.855) rotate(90.8079) scale(432.11 356.118)">
<stop stop-color="#3C3C65"/>
<stop offset="1" stop-color="#181829"/>
</radialGradient>
<radialGradient id="paint31_radial_39_4531" cx="0" cy="0" r="1" gradientUnits="userSpaceOnUse" gradientTransform="translate(329.007 219.855) rotate(90.8079) scale(432.11 356.118)">
<stop stop-color="#3C3C65"/>
<stop offset="1" stop-color="#181829"/>
</radialGradient>
<radialGradient id="paint32_radial_39_4531" cx="0" cy="0" r="1" gradientUnits="userSpaceOnUse" gradientTransform="translate(329.007 219.855) rotate(90.8079) scale(432.11 356.118)">
<stop stop-color="#3C3C65"/>
<stop offset="1" stop-color="#181829"/>
</radialGradient>
<radialGradient id="paint33_radial_39_4531" cx="0" cy="0" r="1" gradientUnits="userSpaceOnUse" gradientTransform="translate(329.007 219.855) rotate(90.8079) scale(432.11 356.118)">
<stop stop-color="#3C3C65"/>
<stop offset="1" stop-color="#181829"/>
</radialGradient>
<radialGradient id="paint34_radial_39_4531" cx="0" cy="0" r="1" gradientUnits="userSpaceOnUse" gradientTransform="translate(329.007 219.855) rotate(90.8079) scale(432.11 356.118)">
<stop stop-color="#3C3C65"/>
<stop offset="1" stop-color="#181829"/>
</radialGradient>
<radialGradient id="paint35_radial_39_4531" cx="0" cy="0" r="1" gradientUnits="userSpaceOnUse" gradientTransform="translate(329.007 219.855) rotate(90.8079) scale(432.11 356.118)">
<stop stop-color="#3C3C65"/>
<stop offset="1" stop-color="#181829"/>
</radialGradient>
<radialGradient id="paint36_radial_39_4531" cx="0" cy="0" r="1" gradientUnits="userSpaceOnUse" gradientTransform="translate(329.007 219.855) rotate(90.8079) scale(432.11 356.118)">
<stop stop-color="#3C3C65"/>
<stop offset="1" stop-color="#181829"/>
</radialGradient>
<radialGradient id="paint37_radial_39_4531" cx="0" cy="0" r="1" gradientUnits="userSpaceOnUse" gradientTransform="translate(329.007 219.855) rotate(90.8079) scale(432.11 356.118)">
<stop stop-color="#3C3C65"/>
<stop offset="1" stop-color="#181829"/>
</radialGradient>
<radialGradient id="paint38_radial_39_4531" cx="0" cy="0" r="1" gradientUnits="userSpaceOnUse" gradientTransform="translate(329.007 219.855) rotate(90.8079) scale(432.11 356.118)">
<stop stop-color="#3C3C65"/>
<stop offset="1" stop-color="#181829"/>
</radialGradient>
<radialGradient id="paint39_radial_39_4531" cx="0" cy="0" r="1" gradientUnits="userSpaceOnUse" gradientTransform="translate(329.007 219.855) rotate(90.8079) scale(432.11 356.118)">
<stop stop-color="#3C3C65"/>
<stop offset="1" stop-color="#181829"/>
</radialGradient>
<radialGradient id="paint40_radial_39_4531" cx="0" cy="0" r="1" gradientUnits="userSpaceOnUse" gradientTransform="translate(329.007 219.855) rotate(90.8079) scale(432.11 356.118)">
<stop stop-color="#3C3C65"/>
<stop offset="1" stop-color="#181829"/>
</radialGradient>
</defs>
</svg>
