<svg width="167" height="63" viewBox="0 0 167 63" fill="none" xmlns="http://www.w3.org/2000/svg">
<path d="M66.8687 35.4956C65.0986 35.4956 63.5174 35.1888 62.1249 34.5752C60.7325 33.938 59.6351 32.9821 58.8326 31.7077C58.0302 30.4097 57.629 28.7694 57.629 26.787V26.1143H59.8947V26.787C59.8947 29.0762 60.5437 30.7755 61.8417 31.8847C63.1634 32.9703 64.839 33.5132 66.8687 33.5132C68.9219 33.5132 70.5032 33.0411 71.6124 32.0971C72.7217 31.1295 73.2763 29.9022 73.2763 28.4154C73.2763 27.4242 73.0285 26.6335 72.5329 26.0435C72.0608 25.4299 71.3882 24.9461 70.515 24.5921C69.6654 24.2145 68.6741 23.8841 67.5413 23.6009L65.2756 23.0344C63.9304 22.6804 62.7268 22.2438 61.6647 21.7246C60.6027 21.1818 59.7649 20.4856 59.1513 19.6359C58.5376 18.7627 58.2308 17.6535 58.2308 16.3082C58.2308 14.963 58.573 13.7948 59.2575 12.8035C59.9655 11.8123 60.9331 11.0571 62.1603 10.5379C63.3876 9.99504 64.8154 9.72363 66.4439 9.72363C68.0723 9.72363 69.5356 10.0068 70.8336 10.5733C72.1552 11.1397 73.1937 11.9775 73.9489 13.0867C74.7277 14.1724 75.1171 15.5412 75.1171 17.1933V18.8571H72.8515V17.1933C72.8515 15.8952 72.5683 14.845 72.0018 14.0426C71.4354 13.2401 70.6684 12.6501 69.7008 12.2725C68.7331 11.8949 67.6475 11.7061 66.4439 11.7061C64.721 11.7061 63.2932 12.1073 62.1603 12.9097C61.0511 13.6886 60.4965 14.8214 60.4965 16.3082C60.4965 17.2995 60.7207 18.0901 61.1691 18.6801C61.6411 19.2701 62.2901 19.7421 63.1162 20.0961C63.9658 20.4502 64.957 20.7688 66.0899 21.052L68.3555 21.6184C69.6536 21.9252 70.8454 22.3382 71.931 22.8574C73.0167 23.353 73.8899 24.0493 74.5507 24.9461C75.2115 25.8193 75.5419 26.9758 75.5419 28.4154C75.5419 29.855 75.1761 31.1059 74.4445 32.1679C73.7365 33.2299 72.7335 34.056 71.4354 34.646C70.1374 35.2124 68.6151 35.4956 66.8687 35.4956ZM80.6472 42.0802V17.7951H82.7004V20.9458H83.1252C83.6209 20.0017 84.3879 19.1639 85.4263 18.4323C86.4883 17.6771 87.9634 17.2995 89.8514 17.2995C91.3855 17.2995 92.7779 17.6653 94.0288 18.3969C95.2796 19.1049 96.2708 20.1197 97.0025 21.4414C97.7577 22.763 98.1353 24.3443 98.1353 26.1851V26.6099C98.1353 28.4272 97.7695 30.0084 97.0379 31.3537C96.3062 32.6753 95.315 33.702 94.0642 34.4336C92.8133 35.1416 91.4091 35.4956 89.8514 35.4956C88.6006 35.4956 87.5268 35.3304 86.6299 35C85.7567 34.646 85.0369 34.1976 84.4705 33.6548C83.9277 33.1119 83.5029 32.5573 83.196 31.9909H82.7712V42.0802H80.6472ZM89.3558 33.584C91.3147 33.584 92.8959 32.9585 94.0996 31.7077C95.3268 30.4569 95.9404 28.734 95.9404 26.5391V26.2559C95.9404 24.0611 95.3268 22.3382 94.0996 21.0874C92.8959 19.8365 91.3147 19.2111 89.3558 19.2111C87.4206 19.2111 85.8393 19.8365 84.6121 21.0874C83.3848 22.3382 82.7712 24.0611 82.7712 26.2559V26.5391C82.7712 28.734 83.3848 30.4569 84.6121 31.7077C85.8393 32.9585 87.4206 33.584 89.3558 33.584ZM103.533 35V17.7951H105.587V19.9545H106.011C106.342 19.1757 106.826 18.6093 107.463 18.2553C108.124 17.9013 109.032 17.7243 110.189 17.7243H112.207V19.7067H109.941C108.643 19.7067 107.605 20.0725 106.826 20.8042C106.047 21.5358 105.657 22.6804 105.657 24.2381V35H103.533ZM116.601 35V17.7951H118.725V35H116.601ZM117.663 14.8214C117.144 14.8214 116.708 14.6444 116.354 14.2904C116 13.9364 115.823 13.4997 115.823 12.9805C115.823 12.4377 116 12.0011 116.354 11.6707C116.708 11.3167 117.144 11.1397 117.663 11.1397C118.206 11.1397 118.643 11.3167 118.973 11.6707C119.327 12.0011 119.504 12.4377 119.504 12.9805C119.504 13.4997 119.327 13.9364 118.973 14.2904C118.643 14.6444 118.206 14.8214 117.663 14.8214ZM124.968 35V17.7951H127.021V20.9812H127.446C127.871 20.0607 128.567 19.2465 129.534 18.5385C130.502 17.8069 131.906 17.4411 133.747 17.4411C134.998 17.4411 136.143 17.7007 137.181 18.2199C138.219 18.7391 139.045 19.5297 139.659 20.5918C140.296 21.6302 140.615 22.94 140.615 24.5213V35H138.491V24.6629C138.491 22.7748 138.019 21.4178 137.075 20.5918C136.131 19.7657 134.868 19.3527 133.287 19.3527C131.517 19.3527 130.042 19.9427 128.862 21.1228C127.682 22.2792 127.092 24.0375 127.092 26.3975V35H124.968ZM145.794 26.4683V26.0435C145.794 24.2263 146.16 22.6686 146.892 21.3706C147.647 20.0725 148.65 19.0695 149.901 18.3615C151.152 17.6535 152.544 17.2995 154.078 17.2995C155.966 17.2995 157.429 17.6771 158.468 18.4323C159.53 19.1639 160.309 20.0017 160.804 20.9458H161.229V17.7951H163.212V39.3897C163.212 40.2394 162.987 40.9002 162.539 41.3722C162.091 41.8442 161.406 42.0802 160.486 42.0802H148.733V40.1686H160.061C160.793 40.1686 161.158 39.8145 161.158 39.1065V31.7077H160.734C160.427 32.2741 159.99 32.8287 159.424 33.3716C158.881 33.9144 158.173 34.3628 157.3 34.7168C156.426 35.0472 155.353 35.2124 154.078 35.2124C152.544 35.2124 151.14 34.8584 149.865 34.1504C148.615 33.4424 147.623 32.4393 146.892 31.1413C146.16 29.8196 145.794 28.262 145.794 26.4683ZM154.574 33.3007C156.533 33.3007 158.114 32.6871 159.317 31.4599C160.545 30.2327 161.158 28.5452 161.158 26.3975V26.1143C161.158 23.9431 160.545 22.2556 159.317 21.052C158.114 19.8247 156.533 19.2111 154.574 19.2111C152.638 19.2111 151.057 19.8247 149.83 21.052C148.603 22.2556 147.989 23.9431 147.989 26.1143V26.3975C147.989 28.5452 148.603 30.2327 149.83 31.4599C151.057 32.6871 152.638 33.3007 154.574 33.3007ZM57.1502 58V42.8035H66.7022V45.4086H60.0158V49.0775H66.1812V51.6826H60.0158V58H57.1502ZM68.8336 58V47.2322H71.569V58H68.8336ZM70.2013 45.9731C69.7092 45.9731 69.2895 45.8139 68.9422 45.4955C68.6093 45.1771 68.4429 44.7574 68.4429 44.2363C68.4429 43.7153 68.6093 43.2956 68.9422 42.9772C69.2895 42.6588 69.7092 42.4996 70.2013 42.4996C70.7079 42.4996 71.1276 42.6588 71.4605 42.9772C71.7933 43.2956 71.9598 43.7153 71.9598 44.2363C71.9598 44.7574 71.7933 45.1771 71.4605 45.4955C71.1276 45.8139 70.7079 45.9731 70.2013 45.9731ZM74.6002 58V47.2322H77.2921V48.6433H77.6829C77.8566 48.267 78.1822 47.9124 78.6598 47.5796C79.1374 47.2322 79.861 47.0585 80.8307 47.0585C81.6701 47.0585 82.401 47.2539 83.0234 47.6447C83.6602 48.021 84.1522 48.5492 84.4996 49.2295C84.8469 49.8952 85.0206 50.6767 85.0206 51.5741V58H82.2852V51.7912C82.2852 50.9807 82.0826 50.3728 81.6774 49.9676C81.2866 49.5623 80.7222 49.3597 79.9841 49.3597C79.1446 49.3597 78.4934 49.6419 78.0302 50.2064C77.5671 50.7563 77.3355 51.5306 77.3355 52.5293V58H74.6002ZM91.3209 58.3039C90.5538 58.3039 89.8664 58.1737 89.2585 57.9132C88.6506 57.6382 88.1658 57.2474 87.804 56.7409C87.4566 56.2198 87.283 55.5903 87.283 54.8522C87.283 54.114 87.4566 53.4989 87.804 53.0069C88.1658 52.5003 88.6579 52.124 89.2802 51.878C89.917 51.6175 90.6407 51.4872 91.4511 51.4872H94.4036V50.8794C94.4036 50.3728 94.2444 49.9603 93.926 49.6419C93.6076 49.3091 93.101 49.1426 92.4063 49.1426C91.7261 49.1426 91.2196 49.3018 90.8867 49.6202C90.5538 49.9242 90.3367 50.3222 90.2354 50.8142L87.7171 49.9676C87.8908 49.4176 88.1658 48.9183 88.5421 48.4696C88.9329 48.0065 89.4466 47.6374 90.0834 47.3625C90.7347 47.073 91.5235 46.9283 92.4498 46.9283C93.8681 46.9283 94.9897 47.2829 95.8147 47.992C96.6396 48.7012 97.0521 49.7288 97.0521 51.0747V55.091C97.0521 55.5251 97.2547 55.7422 97.66 55.7422H98.5284V58H96.7048C96.1693 58 95.7279 57.8697 95.3805 57.6092C95.0332 57.3487 94.8595 57.0014 94.8595 56.5672V56.5455H94.447C94.3891 56.7192 94.2589 56.9507 94.0562 57.2402C93.8536 57.5152 93.5352 57.7612 93.101 57.9783C92.6668 58.1954 92.0735 58.3039 91.3209 58.3039ZM91.7985 56.0896C92.5655 56.0896 93.1879 55.8797 93.6655 55.46C94.1576 55.0258 94.4036 54.4542 94.4036 53.745V53.5279H91.6465C91.14 53.5279 90.742 53.6364 90.4525 53.8535C90.163 54.0706 90.0183 54.3746 90.0183 54.7653C90.0183 55.1561 90.1703 55.4745 90.4742 55.7205C90.7781 55.9666 91.2196 56.0896 91.7985 56.0896ZM100.528 58V47.2322H103.22V48.6433H103.611C103.785 48.267 104.11 47.9124 104.588 47.5796C105.066 47.2322 105.789 47.0585 106.759 47.0585C107.598 47.0585 108.329 47.2539 108.952 47.6447C109.588 48.021 110.08 48.5492 110.428 49.2295C110.775 49.8952 110.949 50.6767 110.949 51.5741V58H108.213V51.7912C108.213 50.9807 108.011 50.3728 107.606 49.9676C107.215 49.5623 106.65 49.3597 105.912 49.3597C105.073 49.3597 104.422 49.6419 103.958 50.2064C103.495 50.7563 103.264 51.5306 103.264 52.5293V58H100.528ZM118.964 58.3039C117.922 58.3039 116.974 58.0868 116.12 57.6527C115.281 57.2185 114.615 56.5889 114.123 55.7639C113.631 54.939 113.385 53.9404 113.385 52.7681V52.4641C113.385 51.2918 113.631 50.2932 114.123 49.4683C114.615 48.6433 115.281 48.0137 116.12 47.5796C116.974 47.1454 117.922 46.9283 118.964 46.9283C119.992 46.9283 120.874 47.1092 121.613 47.471C122.351 47.8328 122.944 48.3321 123.393 48.9689C123.856 49.5913 124.16 50.3004 124.305 51.0965L121.656 51.6609C121.598 51.2267 121.468 50.8359 121.265 50.4886C121.063 50.1412 120.773 49.8663 120.397 49.6636C120.035 49.461 119.579 49.3597 119.029 49.3597C118.479 49.3597 117.98 49.4827 117.531 49.7288C117.097 49.9603 116.75 50.3149 116.489 50.7925C116.243 51.2557 116.12 51.8273 116.12 52.5076V52.7246C116.12 53.4049 116.243 53.9838 116.489 54.4614C116.75 54.9245 117.097 55.2791 117.531 55.5251C117.98 55.7567 118.479 55.8725 119.029 55.8725C119.854 55.8725 120.476 55.6626 120.896 55.2429C121.33 54.8087 121.605 54.2443 121.721 53.5496L124.37 54.1792C124.182 54.9462 123.856 55.6482 123.393 56.285C122.944 56.9073 122.351 57.3994 121.613 57.7612C120.874 58.123 119.992 58.3039 118.964 58.3039ZM131.532 58.3039C130.461 58.3039 129.513 58.0796 128.688 57.6309C127.878 57.1678 127.241 56.5238 126.778 55.6988C126.329 54.8594 126.105 53.8752 126.105 52.7464V52.4858C126.105 51.357 126.329 50.38 126.778 49.5551C127.227 48.7157 127.856 48.0716 128.667 47.623C129.477 47.1598 130.418 46.9283 131.489 46.9283C132.545 46.9283 133.464 47.1671 134.246 47.6447C135.028 48.1078 135.635 48.7591 136.07 49.5985C136.504 50.4235 136.721 51.3859 136.721 52.4858V53.4193H128.884C128.913 54.1575 129.188 54.7581 129.709 55.2212C130.23 55.6843 130.867 55.9159 131.619 55.9159C132.386 55.9159 132.951 55.7495 133.313 55.4166C133.674 55.0837 133.949 54.7147 134.137 54.3094L136.374 55.4817C136.171 55.858 135.874 56.2705 135.483 56.7192C135.107 57.1533 134.601 57.5296 133.964 57.848C133.327 58.152 132.517 58.3039 131.532 58.3039ZM128.906 51.3787H133.942C133.884 50.7563 133.631 50.257 133.182 49.8807C132.748 49.5044 132.176 49.3163 131.467 49.3163C130.729 49.3163 130.143 49.5044 129.709 49.8807C129.275 50.257 129.007 50.7563 128.906 51.3787Z" fill="white"/>
<g clip-path="url(#clip0_26_4)">
<path d="M44.1038 54.6176H43.254C39.0484 56.5548 34.626 57.9813 30.0812 58.8669H44.1038C44.6673 58.8669 45.2078 58.6431 45.6062 58.2446C46.0046 57.8462 46.2285 57.3058 46.2285 56.7423C46.2285 56.1788 46.0046 55.6384 45.6062 55.2399C45.2078 54.8415 44.6673 54.6176 44.1038 54.6176Z" fill="url(#paint0_linear_26_4)"/>
<path d="M7.98482 23.8102C14.2102 23.7796 20.4244 23.2824 26.5755 22.323C33.1619 21.2607 40.067 19.3485 45.2724 16.0553C45.7352 15.7321 46.0584 15.2455 46.1767 14.6935C46.295 14.1415 46.1996 13.5652 45.9098 13.0808C45.7134 12.7825 45.4449 12.5385 45.1293 12.3714C44.8136 12.2042 44.4609 12.1194 44.1038 12.1247C43.6937 12.1312 43.2919 12.2408 42.9353 12.4434C34.7554 17.6488 19.4579 19.5609 7.98482 19.5609C7.5774 19.5677 7.18052 19.6915 6.84149 19.9175C6.50245 20.1435 6.23556 20.4623 6.07263 20.8357C5.94045 21.1 5.86792 21.3902 5.86017 21.6856C5.86017 22.2491 6.08401 22.7895 6.48246 23.1879C6.88091 23.5864 7.42132 23.8102 7.98482 23.8102Z" fill="url(#paint1_linear_26_4)"/>
<path d="M7.98494 35.4958C14.2101 35.4616 20.4241 34.9645 26.5756 34.0086C33.162 32.9462 40.0671 31.034 45.1663 27.7408H45.2725C45.6124 27.436 45.8995 27.077 46.1224 26.6785V26.4661H46.2286V25.9349C46.2286 25.8287 46.2286 25.7224 46.1224 25.7224V25.51V25.2975C45.8415 24.9331 45.4772 24.6416 45.06 24.4476H44.1039L41.7668 24.2352L39.8546 23.3853L33.9056 22.9604C29.0536 24.1531 24.1169 24.97 19.1393 25.4037C19.0955 25.4328 19.0596 25.4723 19.0347 25.5186C19.0098 25.5649 18.9968 25.6167 18.9968 25.6693C18.9968 25.7219 19.0098 25.7737 19.0347 25.82C19.0596 25.8664 19.0955 25.9058 19.1393 25.9349L29.8688 26.891L33.162 27.1035L35.924 27.3159C27.6379 30.1842 16.696 31.2465 7.98494 31.2465C7.57752 31.2533 7.18065 31.377 6.84161 31.6031C6.50258 31.8291 6.23569 32.1478 6.07276 32.5213C5.94057 32.7856 5.86804 33.0757 5.86029 33.3712C5.86029 33.9346 6.08414 34.4751 6.48259 34.8735C6.88103 35.272 7.42145 35.4958 7.98494 35.4958Z" fill="url(#paint2_linear_26_4)"/>
<path d="M7.98494 47.1813C14.2101 47.1471 20.4241 46.65 26.5756 45.6941C33.162 44.6317 39.9609 42.7196 45.06 39.5326C45.1663 39.5326 45.1663 39.5326 45.1663 39.4264H45.2725C45.3787 39.4264 45.485 39.4264 45.485 39.3201L45.9099 38.8952C45.9389 38.7362 46.0126 38.5888 46.1224 38.4703H46.2286V37.9391C46.2286 37.8329 46.2286 37.7266 46.1224 37.7266V37.5142H46.0161C46.0161 37.4079 45.9099 37.4079 45.9099 37.3017H45.6974L45.485 37.0892H45.2725L44.8476 36.8768H44.5289C44.5289 36.8486 44.5177 36.8216 44.4977 36.8017C44.4778 36.7817 44.4508 36.7706 44.4226 36.7706H44.1039L41.7668 36.5581L39.8546 35.0708L33.9056 34.6459C29.0536 35.8387 24.1169 36.6555 19.1393 37.0892C19.0955 37.1183 19.0596 37.1578 19.0347 37.2041C19.0098 37.2505 18.9968 37.3022 18.9968 37.3548C18.9968 37.4074 19.0098 37.4592 19.0347 37.5055C19.0596 37.5519 19.0955 37.5913 19.1393 37.6204L29.8688 38.5765L33.162 38.789L35.924 39.0014C27.6379 41.8697 16.696 42.932 7.98494 42.932C7.57752 42.9388 7.18065 43.0625 6.84161 43.2886C6.50258 43.5146 6.23569 43.8333 6.07276 44.2068C5.94057 44.4711 5.86804 44.7612 5.86029 45.0567C5.86029 45.6202 6.08414 46.1606 6.48259 46.559C6.88103 46.9575 7.42145 47.1813 7.98494 47.1813Z" fill="url(#paint3_linear_26_4)"/>
<path d="M45.06 51.2182H45.2725C45.3787 51.2182 45.485 51.2182 45.485 51.1119C45.485 51.0057 45.8037 50.7932 45.9099 50.687C45.9099 50.5808 45.9099 50.5808 46.0161 50.4745C46.1223 50.3683 46.0161 50.3683 46.1224 50.2621H46.2286V49.7309C46.2286 49.6247 46.2286 49.5185 46.1224 49.5185V49.306H46.0161C46.0161 49.1998 45.9099 49.1998 45.9099 49.0935H45.6974L45.485 48.8811H45.2725L44.8476 48.6686H44.5289C44.5289 48.6404 44.5177 48.6134 44.4977 48.5935C44.4778 48.5736 44.4508 48.5624 44.4226 48.5624H44.1039L41.7668 48.3499L39.8546 46.7564L33.9056 46.3315C29.0536 47.5242 24.1169 48.3411 19.1393 48.7748C19.0955 48.8039 19.0596 48.8434 19.0347 48.8897C19.0098 48.936 18.9968 48.9878 18.9968 49.0404C18.9968 49.093 19.0098 49.1448 19.0347 49.1911C19.0596 49.2375 19.0955 49.2769 19.1393 49.306L29.8688 50.2621L33.162 50.4745L35.924 50.687C27.6379 53.5553 16.696 54.6176 7.98494 54.6176C7.42145 54.6176 6.88103 54.8414 6.48259 55.2399C6.08414 55.6383 5.86029 56.1788 5.86029 56.7423C5.86029 57.3057 6.08414 57.8462 6.48259 58.2446C6.88103 58.6431 7.42145 58.8669 7.98494 58.8669C12.6592 58.8669 26.5756 58.5482 37.73 54.6176C40.2853 53.7435 42.7421 52.6042 45.06 51.2182Z" fill="url(#paint4_linear_26_4)"/>
</g>
<defs>
<linearGradient id="paint0_linear_26_4" x1="38.1548" y1="54.6176" x2="38.1548" y2="58.8669" gradientUnits="userSpaceOnUse">
<stop stop-color="#DFD7FF"/>
<stop offset="1" stop-color="#5C34FF"/>
</linearGradient>
<linearGradient id="paint1_linear_26_4" x1="26.0432" y1="12.1245" x2="26.0432" y2="23.8102" gradientUnits="userSpaceOnUse">
<stop stop-color="#DFD7FF"/>
<stop offset="1" stop-color="#5C34FF"/>
</linearGradient>
<linearGradient id="paint2_linear_26_4" x1="26.0444" y1="22.9604" x2="26.0444" y2="35.4958" gradientUnits="userSpaceOnUse">
<stop stop-color="#DFD7FF"/>
<stop offset="1" stop-color="#5C34FF"/>
</linearGradient>
<linearGradient id="paint3_linear_26_4" x1="26.0444" y1="34.6459" x2="26.0444" y2="47.1813" gradientUnits="userSpaceOnUse">
<stop stop-color="#DFD7FF"/>
<stop offset="1" stop-color="#5C34FF"/>
</linearGradient>
<linearGradient id="paint4_linear_26_4" x1="26.0444" y1="46.3315" x2="26.0444" y2="58.8669" gradientUnits="userSpaceOnUse">
<stop stop-color="#DFD7FF"/>
<stop offset="1" stop-color="#5C34FF"/>
</linearGradient>
<clipPath id="clip0_26_4">
<rect width="50.9915" height="50.9915" fill="white" transform="translate(0.548584 10)"/>
</clipPath>
</defs>
</svg>
